<?xml version="1.0" encoding="utf-8"?>
<!-- Generator: Adobe Illustrator 22.1.0, SVG Export Plug-In . SVG Version: 6.00 Build 0)  -->
<svg version="1.1" id="Africa" xmlns="http://www.w3.org/2000/svg" xmlns:xlink="http://www.w3.org/1999/xlink" x="0px" y="0px"
	 viewBox="0 0 1200 1120" style="enable-background:new 0 0 1200 1120;" xml:space="preserve">
<style type="text/css">
	.st0{fill:#FFFFFF;}
</style>
<path class="st0" d="M842.4,121.7c3.8,43.4-21.6,6.6-32-8.1c-0.8,24.3,32.9,59.5,45.3,82.1c7.7,14,18,21,28.6,38.6
	c6.9,11.5,6.3,35.2,13.8,48.6c4.2,7.3,15.7,9,20.5,16.6c5,8.1,5.3,18.3,10.2,26.2c8.6,14,13.8,13.3,23,19.7
	c12.4,8.6,58.4,33.5,34.5,50.4c15.4,4,21.2,17.3,37.4,17.8c5.6,0.2,28.3-11.4,35.2-13.5c17.4-5.2,36.8-8.2,54.6-14.2
	c4.8,51.3-28.3,107.9-64,144.2c-35.8,36.5-114,91.1-117.5,148.2c-0.1,2.4,6.2,25.4,7.2,30c0.9,4.2,5.2,16.2,7,24.4
	c4.4,18.9,6.2,38.3,5.2,55.3c-1.6,24.7-0.7,35.8-19,52c-18.4,16.3-41.6,14.4-55.2,35.7c0-1.5-13,28-15.7,59.5
	c-3.1,36.7-41.3,50.6-39.8,50.1c-10.8,35.6-70.6,122.4-112,114.3c-1.5,5.1-60.3,11.5-71.7,10.2c-37.4-4.2-25.1-23-30.8-45.5
	c-9.2-36.5-38.1-56.3-46.2-91.1c-8.7-37.1-14.2-61.3-32.7-98c-31.7-62.7,30-108.4,10.8-164.8c-10-29.5-17-46.4-34.3-70.7
	c-9-12.7-55.7-53.2-20.3-60.6c-4.5-9.5,1-46.8-1.5-59.6c0.6,0.3-25.6-12.1-21.4-14.9c-29.6,19.7-46.9-16.6-78.2-20.2
	c-17.9-2-26.8,3.3-40.6,7.1c-10.5,2.9-25,10.9-35,12.1c-7,0.9-12.8-4.4-19.8-3.9c-21,1.5-53.8,15.5-74.3,10.6
	c-16.1-3.9-31.1-22-43.3-31.6c-25.9-20.3-46.8-42.3-53.4-72.5c-8.5-4-24.1-14.9-27.3-21.9c-3.6-7.7-0.3-12.7-1.8-22.5
	c-3.6-23.3-3.9-14.9,3.5-36c13.8-39.2,1.7-79.7,14.3-106.3c11.9-25.1,36.9-58.2,58.5-73.5c13.2-9.4,29-13.7,41.9-24.6
	c17.9-15.1,12.9-28,24.3-46.8c10.9-18,58.3-50.5,69-51.4c5.5-0.5,24.4,10.6,31.8,10.2c12.5-0.7,23.1-4.7,35.6-9.3
	c45.9-17,104-12.2,145.2-12.9c8.3,4.7-14.7,40.3-14.6,42.8c0.4,7.6,20.3,14.3,32.7,20c24,10.8,37.6,17.5,59.8,30
	c3,1.7,24.4,10.1,26.5,9.6c19.8-4.5,7.4-11.4,15.9-20.4c30.9-32.6,64.6,3.4,109,4.9C773.4,99.2,832.9,73.4,842.4,121.7z"/>
</svg>
