<?xml version="1.0" encoding="utf-8"?>
<!-- Generator: Adobe Illustrator 22.1.0, SVG Export Plug-In . SVG Version: 6.00 Build 0)  -->
<svg version="1.1" id="Arctic" xmlns="http://www.w3.org/2000/svg" xmlns:xlink="http://www.w3.org/1999/xlink" x="0px" y="0px"
	 viewBox="0 0 1200 1120" style="enable-background:new 0 0 1200 1120;" xml:space="preserve">
<style type="text/css">
	.st0{fill:#FFFFFF;}
</style>
<path class="st0" d="M1184.8,748.7c-8.6-37.4-23.7-61.5-52.8-85.5c-32.5-26.7-50.9-51.6-55.2-94.6c-2.9-28.9,2.4-57.5-1.1-86.4
	c-5.1-42.1-15.1-85.5-27-126.2c-46.3-158.9-218.8-202.9-367.5-194.9c-66.9,3.6-125.9,25.6-190.3,40.6c-21.3,5-28.6,2.9-48.8-4.6
	c-14.8-5.5-30.1-9.5-45.7-12.1c-25.3-4.2-51.8-5.4-76.3,3c-9.8,3.3-19.3,8-28.8,12.1c-22.2,9.6-31.3,14.8-54.8,10.3
	c-37.6-7.2-76.3-3.7-109.9,15.4c-10.7,6.1-11.9,9.4-22.5,6.6c-15.4-4-30-22-48-12c-10.8,6-13.2,21.9-11.8,33c1,8,4.5,14.7,8.3,21.6
	c2.8,4.4,5.1,9.3,8.7,13.1c6,6.2,10.2,10.4,8,19.1c-8.4,33.3,1.2,68.1,21.3,101.4c9.2,15.3,30.7,29.3,37.6,44.5
	c8.2,17.9,0,59.7,0,79.6c0,59.5,2,116.4-10.9,174.9c-9.2,42-19.8,84-29.5,125.9c-6.5,28-19.6,43.4-47.6,52.4
	c-39,12.5-40.2,48.6,5,47.2c36.3-1.2,69.2-6.8,105.9-2.6c41.9,4.8,19.3-25.7,28.6-55c15.1-47.9,77.1-54,91.2-99.6
	c8.8-28.5,14-57.9,25.1-85.8c4.5-11.3,9.7-22.1,16.8-32.1c3.7-5.2,7.8-10,12-14.6c4.2-4.5,8.5-8.8,13.1-13
	c5.7-10.1,7.9-7.8,16.2,0.1c57.4,55.2,71.2,92,71.9,161.6c0.3,25.6,14.4,50.7-7.8,75.2c-19.3,21.3-49.1,4.7-74.4,17.1
	c-16.9,8.3-19.9,28.6-3.7,39.5c14.6,9.8,44.1,5.3,60.5,5.4c30.7,0.1,60.7-0.7,91.3,3c23.5,2.8,38.9,7.9,49.1-14.8
	c12.5-27.7,18.9-60.4,26.1-89.8c6.3-25.9,25.7-41.8,33.9-66.4c12.5-38,8.5-81.1,6.9-120.4c24,0,48,0,72,0c9.1,0,40.7-5.5,44.2-2.9
	c9.1,6.5,11.8,42.1,14.3,53.3c2.9,13.3,5.4,26.6,8.9,39.7c8.1,30.2,17.1,61.1,29.3,90c14.1,33.6,24.6,64.9-16.4,78.7
	c-20.3,6.8-84.5,11.4-49.1,49c22.3,23.7,64.4,3.9,89.5-2c36.5-8.6,74.5-10.7,111-19.7c37.3-9.2,25.1-45.1,17.3-75.6
	c-11.5-44.7-12.6-85.2-0.1-130.4c36.8,39.8,72,62.8,121.7,83.2c21.5,8.8,43,26.2,36.5,51.8c-5.6,22-18,35.4-0.9,57.4
	c30,38.5,77.5,0.2,88.9-34C1187.3,841.3,1193.8,787.9,1184.8,748.7z"/>
</svg>
