<?xml version="1.0" encoding="utf-8"?>
<!-- Generator: Adobe Illustrator 22.1.0, SVG Export Plug-In . SVG Version: 6.00 Build 0)  -->
<svg version="1.1" xmlns="http://www.w3.org/2000/svg" xmlns:xlink="http://www.w3.org/1999/xlink" x="0px" y="0px"
	 viewBox="0 0 1200 1120" style="enable-background:new 0 0 1200 1120;" xml:space="preserve">
<style type="text/css">
	.st0{display:none;}
	.st1{display:inline;opacity:0.5;}
	.st2{display:inline;opacity:0.42;}
	.st3{display:inline;opacity:0.47;}
	.st4{display:inline;opacity:0.43;}
	.st5{display:inline;opacity:0.33;}
	.st6{display:inline;}
	.st7{display:inline;opacity:0.35;}
	
		.st8{display:inline;opacity:0.46;fill:none;stroke:#000000;stroke-width:16;stroke-linecap:round;stroke-linejoin:round;stroke-miterlimit:10;}
	.st9{fill:none;stroke:#000000;stroke-width:18;stroke-linecap:round;stroke-miterlimit:10;}
	.st10{display:inline;fill:none;stroke:#000000;stroke-width:18;stroke-linecap:round;stroke-miterlimit:10;}
	
		.st11{display:inline;fill:#FFFFFF;stroke:#FFFFFF;stroke-width:30.9442;stroke-linecap:round;stroke-linejoin:round;stroke-miterlimit:10;}
	.st12{display:inline;stroke:#000000;stroke-width:33;stroke-linecap:round;stroke-linejoin:round;stroke-miterlimit:10;}
	.st13{display:inline;fill:none;stroke:#000000;stroke-width:40;stroke-linecap:round;stroke-miterlimit:10;}
	.st14{fill:#FFFFFF;stroke:#FFFFFF;stroke-width:13.0344;stroke-linejoin:round;stroke-miterlimit:10;}
	.st15{fill:#FFFFFF;}
	.st16{display:inline;fill:#333333;}
	.st17{display:inline;fill:#FFFFFF;}
</style>
<g id="Inspiration">
</g>
<g id="Arctic" class="st0">
	
		<image style="overflow:visible;" width="856" height="676" xlink:href="../../../../Desktop/Screen Shot 2018-09-17 at 11.37.44.png"  transform="matrix(1.6569 0 0 1.6569 -231 0)">
	</image>
	<path class="st1" d="M1560,100c4.2-4.6,7.3-5.8,40-20c40.1-17.4,42.5-18.6,50-20c20.8-4,37.8-1.7,50,0c5.4,0.7,20.5,3,40,10
		c0,0,37.3,13.3,70,40c24.9,20.3,131.4,118.6,100,190c-25.6,58.2-130,69.6-200,50c-111.1-31.1-153.1-144.9-160-190
		C1548,146.8,1543.6,118,1560,100z"/>
	<path class="st2" d="M1710,90c14.3-9,23.1-2.6,90-20c40-10.4,40.6-13.7,70-20c19.7-4.3,55.2-10.5,100-10c17.5,0.2,50,1.6,90,10
		c33.8,7.1,59.8,12.6,90,30c11,6.3,36.8,21.5,60,50c30.4,37.4,38.5,75.6,50,130c7.8,37,11.8,55.6,10,80c-0.6,8.6-2.2,21.6,0,40
		c1.8,15.5,3.2,27.2,10,40c9.3,17.6,24.8,29.9,50,50c1.7,1.4,5.8,4.6,10,10c5,6.4,7.3,12.4,10,20c5.7,16,8.6,23.9,10,30
		c1.1,4.7,4.8,22.2,0,60c-4.7,36.8-7,55.2-20,70c-4.2,4.8-19.9,22.7-40,20c-11.3-1.5-18.7-8.7-20-10c-11.6-11.8-10.2-28.3-10-30
		c1.5-14.6,10.8-17.6,10-30c-0.6-9.5-6.6-16.2-10-20c-11.4-12.8-24.9-14.6-40-20c-17.7-6.3-28.5-14.2-50-30
		c-23-16.9-19.7-21.4-50-50c-24.2-22.8-41.9-39.1-70-50c-17.3-6.7-32.3-8.9-40-10c-23.7-3.4-39.6,10-60,10c-30,0-0.1-0.1-80,0
		c-99,0.1-97.5-9.3-100-10C1682.9,404.3,1638.5,135.1,1710,90z"/>
	<path class="st3" d="M1930,320c4.6,19,11.4,21,30,70c4.1,10.9,12,32.4,20,60c12.2,42.1,8.4,42.4,20,80c11,35.5,16.5,53.2,20,60
		c2.3,4.3,8.1,14.9,10,30c1.3,9.9,2.3,14.8,0,20c-4.8,10.7-18.8,14.5-40,20c-19.8,5.1-26.5,4-30,10c-4.9,8.3,0,24.2,10,30
		c9.5,5.6,18.2,8.8,50,0c21.4-5.9,33.5-9.2,50-10c20.1-1,26.8-7.2,50-10c16.1-1.9,24.7-3.1,30-10c1.7-2.3,5.9-8.7,0-40
		c-4-21.2-7.3-25.8-10-40c-3.7-19.8-1.8-35.3,0-50c4.5-36.3,16.9-62.9,20-70c18.4-41.8,37.1-136.5,0-200
		c-37-63.2-135.9-106.7-190-70C1935,223.7,1920.4,279.9,1930,320z"/>
	<path class="st4" d="M1480,240c-0.4,1.9-0.1,1.5,0,40c0,13.3,0,26.7,0,40c0,23.3,0,46.7,0,70c0,38.8,0.1,37.7,0,40
		c-1.7,31.5-7.1,56.6-10,70c0,0.2,0,0-10,40c-6.7,26.6-10,40-10,40c-4.8,24-3.6,29.6-10,40c-2.7,4.4-8.6,14.1-20,20
		c-12.9,6.7-20,2-30,10c-5.3,4.2-12,12.5-10,20c0.5,2,2.2,6.1,10,10c14.1,7.1,25.1,2,50,0c12.7-1,29.2-2.4,50,0
		c16.9,1.9,25.4,5.1,30,0c4.8-5.4-1.5-12.4,0-30c0.3-2.9,1.7-16.7,10-30c4.7-7.5,9.8-11.9,20-20c31.9-25.2,33-22.2,40-30
		c11.4-12.7,6.8-19,20-60c7.8-24.3,11.7-36.4,20-50c5-8.1,15.4-23.3,50-50c30.8-23.8,45.5-29.5,60-40c45.8-33.1,81.9-108.3,60-150
		c-23.3-44.4-105.3-37.3-190-30C1585.8,192.1,1488.5,202.1,1480,240z"/>
	<path class="st5" d="M1600,340c10.9,25.3,24.5,41.6,40,60c19.2,22.8,28.8,34.2,40,40c9.8,5.1,20.7,8.2,30,20c1.8,2.3,5.4,7.2,10,20
		c8.1,22.6,9.6,42.3,10,50c1.6,30.4-5.3,32.3,0,50c4.1,13.7,9.5,17,10,30c0.2,3.8,0.9,22.2-10,30c-8.3,6-15.5,0.1-40,0
		c-16.7-0.1-33.6-0.2-40,10c-3.6,5.8-3.6,14.2,0,20c5.5,8.7,18,9.5,40,10c35.7,0.8,43-0.5,60,0c43.4,1.2,59.5,11.1,70,0
		c2.8-2.9,1.5-3.5,10-30c6.3-19.7,6.7-18.5,10-30c7.2-24.7,4.4-27.1,10-40c7-16.3,12.2-14.3,20-30c2.1-4.3,7.7-16.3,10-50
		c1.6-23.9,0.5-41.9,0-50c-2.7-47.2,0.8-66.1,0-90c-0.7-21.2-4.1-122.7-70-160c-57.8-32.7-128.3,3.9-140,10
		c-33.6,17.5-84,57.7-80,100C1590.8,318.8,1593.9,325.8,1600,340z"/>
	<path class="st6" d="M390,470"/>
	<path class="st7" d="M1184.8,748.7c-8.6-37.4-23.7-61.5-52.8-85.5c-32.5-26.7-50.9-51.6-55.2-94.6c-2.9-28.9,2.4-57.5-1.1-86.4
		c-5.1-42.1-15.1-85.5-27-126.2c-46.3-158.9-218.8-202.9-367.5-194.9c-66.9,3.6-125.9,25.6-190.3,40.6c-21.3,5-28.6,2.9-48.8-4.6
		c-14.8-5.5-30.1-9.5-45.7-12.1c-25.3-4.2-51.8-5.4-76.3,3c-9.8,3.3-19.3,8-28.8,12.1c-22.2,9.6-31.3,14.8-54.8,10.3
		c-37.6-7.2-76.3-3.7-109.9,15.4c-10.7,6.1-11.9,9.4-22.5,6.6c-15.4-4-30-22-48-12c-10.8,6-13.2,21.9-11.8,33c1,8,4.5,14.7,8.3,21.6
		c2.8,4.4,5.1,9.3,8.7,13.1c6,6.2,10.2,10.4,8,19.1c-8.4,33.3,1.2,68.1,21.3,101.4c9.2,15.3,30.7,29.3,37.6,44.5
		c8.2,17.9,0,59.7,0,79.6c0,59.5,2,116.4-10.9,174.9c-9.2,42-19.8,84-29.5,125.9c-6.5,28-19.6,43.4-47.6,52.4
		c-39,12.5-40.2,48.6,5,47.2c36.3-1.2,69.2-6.8,105.9-2.6c41.9,4.8,19.3-25.7,28.6-55c15.1-47.9,77.1-54,91.2-99.6
		c8.8-28.5,14-57.9,25.1-85.8c4.5-11.3,9.7-22.1,16.8-32.1c3.7-5.2,7.8-10,12-14.6c4.2-4.5,8.5-8.8,13.1-13
		c5.7-10.1,7.9-7.8,16.2,0.1c57.4,55.2,71.2,92,71.9,161.6c0.3,25.6,23.4,56.7,1.2,81.2c-19.3,21.3-58.1-1.3-83.4,11.1
		c-16.9,8.3-19.9,28.6-3.7,39.5c14.6,9.8,44.1,5.3,60.5,5.4c30.7,0.1,60.7-0.7,91.3,3c23.5,2.8,38.9,7.9,49.1-14.8
		c12.5-27.7,18.9-60.4,26.1-89.8c6.3-25.9,25.7-41.8,33.9-66.4c12.5-38,8.5-81.1,6.9-120.4c24,0,48,0,72,0c9.1,0,40.7-5.5,44.2-2.9
		c9.1,6.5,11.8,42.1,14.3,53.3c2.9,13.3,5.4,26.6,8.9,39.7c8.1,30.2,17.1,61.1,29.3,90c14.1,33.6,24.6,64.9-16.4,78.7
		c-20.3,6.8-84.5,11.4-49.1,49c22.3,23.7,64.4,3.9,89.5-2c36.5-8.6,74.5-10.7,111-19.7c37.3-9.2,25.1-45.1,17.3-75.6
		c-11.5-44.7-12.6-85.2-0.1-130.4c36.8,39.8,72,62.8,121.7,83.2c21.5,8.8,43,26.2,36.5,51.8c-5.6,22-18,35.4-0.9,57.4
		c30,38.5,77.5,0.2,88.9-34C1187.3,841.3,1193.8,787.9,1184.8,748.7z"/>
	<path class="st7" d="M2410,1475c-1.4-6.1-4.3-14-10-30c-2.7-7.6-5-13.6-10-20c-4.2-5.4-8.3-8.6-10-10c-25.2-20.1-40.7-32.4-50-50
		c-6.8-12.8-8.2-24.5-10-40c-2.2-18.4-0.6-31.4,0-40c1.8-24.4-2.2-43-10-80c-11.5-54.4-19.6-92.6-50-130c-23.2-28.5-49-43.7-60-50
		c-30.2-17.4-56.2-22.9-90-30c-40-8.4-72.5-9.8-90-10c-44.8-0.5-80.3,5.7-100,10c-29.4,6.3-30,9.6-70,20c-16.2,4.2-29,7-39.3,9
		c-12.3-6-20.7-9-20.7-9c-19.5-7-34.6-9.3-40-10c-12.2-1.7-29.2-4-50,0c-7.5,1.4-9.9,2.6-50,20c-5,2.2-9.3,4-13.1,5.7
		c-12.8-3.7-22.5-5.1-26.9-5.7c-9.5-1.2-23-2.7-40,0c-27.3,4.4-45.8,17-50,20c-1.4,1-3.1,2.2-5,3.6c-1.6-1.2-3.2-2.3-5-3.6
		c-5.5-4-11.6-7.8-20-10c-6.6-1.7-13.7-3.6-20,0c-8.6,4.9-9.7,16.7-10,20c-1.2,13,5.3,23.1,10,30c2.8,4.1,5.8,8.6,9.1,12.8
		c-9.2,31.8,3.3,60.2,10.9,77.2c10.6,24,25.6,40.9,40,53.7c0,12.1,0,24.2,0,36.3c0,23.3,0,46.7,0,70c0,38.8,0.1,37.7,0,40
		c-1.7,31.5-7.1,56.6-10,70c0,0.2,0,0-10,40c-6.7,26.6-10,40-10,40c-4.8,24-3.6,29.6-10,40c-2.7,4.4-8.6,14.1-20,20
		c-12.9,6.7-20,2-30,10c-5.3,4.2-12,12.5-10,20c0.5,2,2.2,6.1,10,10c14.1,7.1,25.1,2,50,0c12.7-1,29.2-2.4,50,0
		c16.9,1.9,25.4,5.1,30,0c4.8-5.4-1.5-12.4,0-30c0.3-2.9,1.7-16.7,10-30c4.7-7.5,9.8-11.9,20-20c31.9-25.2,33-22.2,40-30
		c11.4-12.7,6.8-19,20-60c7.8-24.3,11.7-36.4,20-50c3.9-6.5,11.4-17.4,31.7-35c6.8,7.2,12.3,11.9,18.3,15c9.8,5.1,20.7,8.2,30,20
		c1.8,2.3,5.4,7.2,10,20c8.1,22.6,9.6,42.3,10,50c1.6,30.4-5.3,32.3,0,50c4.1,13.7,9.5,17,10,30c0.2,3.8,0.9,22.2-10,30
		c-8.3,6-15.5,0.1-40,0c-16.7-0.1-33.6-0.2-40,10c-3.6,5.8-3.6,14.2,0,20c5.5,8.7,18,9.5,40,10c35.7,0.8,43-0.5,60,0
		c43.4,1.2,59.5,11.1,70,0c2.8-2.9,1.5-3.5,10-30c6.3-19.7,6.7-18.5,10-30c7.2-24.7,4.4-27.1,10-40c7-16.3,12.2-14.3,20-30
		c2.1-4.3,7.7-16.3,10-50c1.6-23.9,0.5-41.9,0-50c-0.2-3.5-0.4-6.8-0.5-10c0.2,0,0.3,0,0.5,0c79.9-0.1,50,0,80,0
		c5.7,0,11-1,16.3-2.5c1.2,4,2.5,8.2,3.7,12.5c12.2,42.1,8.4,42.4,20,80c11,35.5,16.5,53.2,20,60c2.3,4.3,8.1,14.9,10,30
		c1.3,9.9,2.3,14.8,0,20c-4.8,10.7-18.8,14.5-40,20c-19.8,5.1-26.5,4-30,10c-4.9,8.3,0,24.2,10,30c9.5,5.6,18.2,8.8,50,0
		c21.4-5.9,33.5-9.2,50-10c20.1-1,26.8-7.2,50-10c16.1-1.9,24.7-3.1,30-10c1.7-2.3,5.9-8.7,0-40c-4-21.2-7.3-25.8-10-40
		c-3.7-19.8-1.8-35.3,0-50c1.5-12.3,4-23.6,6.6-33.3c13.6,14.7,15.8,20.4,33.4,33.3c21.5,15.8,32.3,23.7,50,30
		c15.1,5.4,28.6,7.2,40,20c3.4,3.8,9.4,10.5,10,20c0.8,12.4-8.5,15.4-10,30c-0.2,1.7-1.6,18.2,10,30c1.3,1.3,8.7,8.5,20,10
		c20.1,2.7,35.8-15.2,40-20c13-14.8,15.3-33.2,20-70C2414.8,1497.2,2411.1,1479.7,2410,1475z"/>
	<path class="st7" d="M2600,1956c-7.2-31.1-19.7-51.2-44-71.2c-27-22.3-42.4-43-46-78.8c-2.4-24.1,2-47.9-1-71.9
		c-4.2-35.1-12.6-71.2-22.4-105.1c-38.6-132.3-182.2-169-306-162.3c-55.7,3-104.8,21.3-158.4,33.8c-17.8,4.1-23.8,2.4-40.6-3.9
		c-12.3-4.6-25.1-7.9-38-10c-21.1-3.5-43.1-4.5-63.6,2.5c-8.2,2.8-16,6.7-23.9,10.1c-18.5,8-26.1,12.3-45.7,8.6
		c-31.3-6-63.5-3.1-91.5,12.8c-8.9,5.1-10,7.8-18.8,5.5c-12.8-3.3-25-18.4-40-10c-9,5-11,18.2-9.9,27.5c0.8,6.7,3.7,12.2,6.9,18
		c2.3,3.7,4.2,7.8,7.3,10.9c5,5.1,8.5,8.7,6.6,15.9c-7,27.7,1,56.7,17.7,84.5c7.7,12.8,25.6,24.4,31.3,37c6.8,14.9,0,49.7,0,66.3
		c0,49.6,1.7,96.9-9,145.6c-7.7,35-16.5,69.9-24.6,104.8c-5.4,23.3-16.3,36.2-39.6,43.6c-32.5,10.4-33.5,40.5,4.2,39.3
		c30.2-1,57.7-5.7,88.2-2.2c34.9,4,16.1-21.4,23.8-45.8c12.6-39.9,64.2-44.9,75.9-83c7.3-23.8,11.7-48.2,20.9-71.5
		c3.7-9.4,8.1-18.4,14-26.7c3-4.3,6.5-8.3,10-12.2c3.5-3.7,7.1-7.4,10.9-10.8c4.7-8.4,6.6-6.5,13.5,0.1
		c47.8,46,59.3,76.6,59.9,134.6c0.2,21.3,24.5,49.7,6,70.1c-16.1,17.8-53.4-3.5-74.5,6.8c-14.1,6.9-16.6,23.8-3,32.9
		c12.2,8.1,36.8,4.4,50.4,4.5c25.6,0.1,50.5-0.6,76.1,2.5c19.5,2.3,32.4,6.5,40.9-12.3c10.4-23.1,15.7-50.3,21.7-74.8
		c5.3-21.5,21.4-34.8,28.2-55.3c10.4-31.6,7.1-67.5,5.7-100.2c20,0,40,0,60,0c7.6,0,33.9-4.5,36.8-2.4c7.6,5.4,9.8,35.1,11.9,44.4
		c2.4,11.1,4.5,22.1,7.4,33.1c6.8,25.2,14.3,50.9,24.4,75c11.8,28,20.5,54-13.6,65.5c-16.9,5.7-70.4,9.5-40.9,40.8
		c18.6,19.7,53.6,3.3,74.5-1.6c30.4-7.2,62-8.9,92.4-16.4c31-7.7,20.9-37.5,14.4-63c-9.6-37.2-10.5-71-0.1-108.6
		c30.6,33.2,60,52.3,101.3,69.3c17.9,7.3,35.8,21.8,30.4,43.2c-4.7,18.3-15,29.5-0.8,47.8c25,32.1,64.5,0.2,74-28.3
		C2602.1,2033.1,2607.5,1988.6,2600,1956z M1740,1604c-5.5,0-10-4.5-10-10s4.5-10,10-10s10,4.5,10,10S1745.5,1604,1740,1604z
		 M1792,1676c-6.1,3.5-13.9,3.5-20,0c-6.7-3.8-12.3-12.3-10-20c1.8-6,7.6-8.8,10-10c0.8-0.4,10.2-4.8,20,0c2.4,1.2,8.2,4,10,10
		C1804.3,1663.7,1798.7,1672.2,1792,1676z M1824,1604c-5.5,0-10-4.5-10-10s4.5-10,10-10s10,4.5,10,10S1829.5,1604,1824,1604z"/>
	<path class="st8" d="M1302.5,1425.3c5.5-13.6,7.9-26.7,8.5-40.2c0.4-8.7-0.5-17.5-2.5-26.1c2.6-2.7,5-5.4,7.2-7.9
		c4.9-5.6,7.5-9.7,9.4-14.1c1.5-3.5,7.6-17.8,1.2-32.8c-1.3-3.1-5.1-11.8-14.1-16.4c-13.4-6.9-28.6,0.4-37.5,4.7
		c-2.5,1.2-5.4,2.6-8.3,4.3c-1.1-0.7-2.2-1.3-3.4-1.9c-11.4-6-30.2-11.3-31.7-11.7c-14.8-4.1-26-7-39.9-7"/>
</g>
<g id="Sea_level_rise" class="st0">
	<g class="st6">
		<path d="M126.8,760.5c72.6,0,87.9-50.5,160.4-50.5c8.6,0,16.4,0.7,23.6,2c4.6,0.8,8.9-2.7,8.9-7.5V374.1c0-4.2-3.4-7.6-7.6-7.6
			H126.8c-4.2,0-7.6,3.4-7.6,7.6v378.8C119.2,757.1,122.7,760.5,126.8,760.5L126.8,760.5z M192.3,429h52.3c4.2,0,7.6,3.4,7.6,7.6
			v52.3c0,4.2-3.4,7.6-7.6,7.6h-52.3c-4.2,0-7.6-3.4-7.6-7.6v-52.3C184.8,432.4,188.1,429,192.3,429z M192.3,564h52.3
			c4.2,0,7.6,3.4,7.6,7.6v52.3c0,4.2-3.4,7.6-7.6,7.6h-52.3c-4.2,0-7.6-3.4-7.6-7.6v-52.3C184.8,567.4,188.1,564,192.3,564z"/>
		<path d="M859.2,243.1v462.6c0,11.7,11.7,19.6,22.6,15.4c13.1-5.1,28.1-8.5,47-8.6c50.8-0.1,73.5,24.8,107.7,39.7
			c11,4.8,23.2-3.2,23.2-15.2v-494c0-9.1-7.4-16.6-16.6-16.6H875.8C866.7,226.5,859.2,233.9,859.2,243.1z M975.7,631.5h-34.4
			c-9.1,0-16.6-7.4-16.6-16.6v-34.4c0-9.1,7.4-16.6,16.6-16.6h34.4c9.1,0,16.6,7.4,16.6,16.6v34.4
			C992.2,624.1,984.8,631.5,975.7,631.5z M975.7,496.5h-34.4c-9.1,0-16.6-7.4-16.6-16.6v-34.4c0-9.1,7.4-16.6,16.6-16.6h34.4
			c9.1,0,16.6,7.4,16.6,16.6v34.4C992.2,489.1,984.8,496.5,975.7,496.5z M975.7,361.5h-34.4c-9.1,0-16.6-7.4-16.6-16.6v-34.4
			c0-9.1,7.4-16.6,16.6-16.6h34.4c9.1,0,16.6,7.4,16.6,16.6v34.4C992.2,354.1,984.8,361.5,975.7,361.5z"/>
		<path class="st9" d="M-49.6,738.6c5.4-0.1,10.7,0.1,16,0.4c72.5,5.2,91.7,50.5,160.4,50.5c72.6,0,87.9-50.5,160.4-50.5
			s87.8,50.5,160.4,50.5c68.7,0,87.9-45.3,160.4-50.5c72.1-5.2,88,50.6,160.4,50.5c72.5-0.1,87.8-50.9,160.4-51
			c72.3-0.1,87.6,50.4,160.4,50.5c72.5,0.1,87-49.8,160.4-50.5"/>
		<path d="M447.6,834.5c68.7,0,87.9-45.3,160.4-50.5c72.1-5.2,88,50.6,160.4,50.5c25.1,0,43.3-6.1,59.4-14.1
			c6.9-3.4,11.2-10.5,11.2-18.1V59.8c0-11.2-9.1-20.3-20.3-20.3H359.3c-11.2,0-20.3,9.1-20.3,20.3v721.8c0,7.7,4.3,14.6,11.1,18.1
			C379,814.5,402,834.5,447.6,834.5z M659.3,139.5h59.4c11.2,0,20.3,9.1,20.3,20.3v59.4c0,11.2-9.1,20.3-20.3,20.3h-59.4
			c-11.2,0-20.3-9.1-20.3-20.3v-59.4C639,148.6,648.1,139.5,659.3,139.5z M659.3,339.5h59.4c11.2,0,20.3,9.1,20.3,20.3v59.4
			c0,11.2-9.1,20.3-20.3,20.3h-59.4c-11.2,0-20.3-9.1-20.3-20.3v-59.4C639,348.6,648.1,339.5,659.3,339.5z M659.3,539.5h59.4
			c11.2,0,20.3,9.1,20.3,20.3v59.4c0,11.2-9.1,20.3-20.3,20.3h-59.4c-11.2,0-20.3-9.1-20.3-20.3v-59.4
			C639,548.6,648.1,539.5,659.3,539.5z M459.3,139.5h59.4c11.2,0,20.3,9.1,20.3,20.3v59.4c0,11.2-9.1,20.3-20.3,20.3h-59.4
			c-11.2,0-20.3-9.1-20.3-20.3v-59.4C439,148.6,448.1,139.5,459.3,139.5z M459.3,339.5h59.4c11.2,0,20.3,9.1,20.3,20.3v59.4
			c0,11.2-9.1,20.3-20.3,20.3h-59.4c-11.2,0-20.3-9.1-20.3-20.3v-59.4C439,348.6,448.1,339.5,459.3,339.5z M459.3,539.5h59.4
			c11.2,0,20.3,9.1,20.3,20.3v59.4c0,11.2-9.1,20.3-20.3,20.3h-59.4c-11.2,0-20.3-9.1-20.3-20.3v-59.4
			C439,548.6,448.1,539.5,459.3,539.5z"/>
		<path class="st9" d="M4,818.6c45.1,14.1,68.3,43.7,123.8,43.7c72.6,0,87.9-50.5,160.4-50.5s87.8,50.5,160.4,50.5
			c68.7,0,87.9-45.3,160.4-50.5c72.1-5.2,88,50.6,160.4,50.5c72.5-0.1,87.8-50.9,160.4-51c72.3-0.1,87.6,50.4,160.4,50.5
			c56.8,0.1,78-30.5,119.8-44.1"/>
		<path class="st9" d="M434.5,934.4c4.2,0.4,8.5,0.6,13.1,0.6c68.7,0,87.9-45.3,160.4-50.5c72.1-5.2,88,50.6,160.4,50.5
			c72.5-0.1,87.8-50.9,160.4-51c31.3,0,52,9.4,71.2,20.1"/>
		<path class="st9" d="M140,934.4c61.6-5.6,79.3-49.9,147.2-49.9c29,0,48.9,8.1,66.9,17.8"/>
		<g>
			<path class="st9" d="M650,961.5c41,12.5,63.1,46.3,119.4,46.2c72.5-0.1,87.8-50.9,160.4-51"/>
			<path class="st9" d="M238.2,966.9c13.9-5.7,29.7-9.7,50-9.7c72.5,0,87.8,50.5,160.4,50.5c50.2,0,73.9-24.2,111.4-39.2"/>
		</g>
	</g>
	<g class="st6">
		<path d="M-1695.2,1135.5c72.6,0,87.9-50.5,160.4-50.5c8.6,0,16.4,0.7,23.6,2c4.6,0.8,8.9-2.7,8.9-7.5V749.1c0-4.2-3.4-7.6-7.6-7.6
			h-185.3c-4.2,0-7.6,3.4-7.6,7.6v378.8C-1702.8,1132.1-1699.3,1135.5-1695.2,1135.5L-1695.2,1135.5z M-1629.7,804h52.3
			c4.2,0,7.6,3.4,7.6,7.6v52.3c0,4.2-3.4,7.6-7.6,7.6h-52.3c-4.2,0-7.6-3.4-7.6-7.6v-52.3C-1637.2,807.4-1633.9,804-1629.7,804z
			 M-1629.7,939h52.3c4.2,0,7.6,3.4,7.6,7.6v52.3c0,4.2-3.4,7.6-7.6,7.6h-52.3c-4.2,0-7.6-3.4-7.6-7.6v-52.3
			C-1637.2,942.4-1633.9,939-1629.7,939z"/>
		<path d="M-962.8,618.1v462.6c0,11.7,11.7,19.6,22.6,15.4c13.1-5.1,28.1-8.5,47-8.6c50.8-0.1,73.5,24.8,107.7,39.7
			c11,4.8,23.2-3.2,23.2-15.2v-494c0-9.1-7.4-16.6-16.6-16.6h-167.4C-955.3,601.5-962.8,608.9-962.8,618.1z M-846.3,1006.5h-34.4
			c-9.1,0-16.6-7.4-16.6-16.6v-34.4c0-9.1,7.4-16.6,16.6-16.6h34.4c9.1,0,16.6,7.4,16.6,16.6v34.4
			C-829.8,999.1-837.2,1006.5-846.3,1006.5z M-846.3,871.5h-34.4c-9.1,0-16.6-7.4-16.6-16.6v-34.4c0-9.1,7.4-16.6,16.6-16.6h34.4
			c9.1,0,16.6,7.4,16.6,16.6v34.4C-829.8,864.1-837.2,871.5-846.3,871.5z M-846.3,736.5h-34.4c-9.1,0-16.6-7.4-16.6-16.6v-34.4
			c0-9.1,7.4-16.6,16.6-16.6h34.4c9.1,0,16.6,7.4,16.6,16.6v34.4C-829.8,729.1-837.2,736.5-846.3,736.5z"/>
		<path class="st9" d="M-1871.6,1113.6c5.4-0.1,10.7,0.1,16,0.4c72.5,5.2,91.7,50.5,160.4,50.5c72.6,0,87.9-50.5,160.4-50.5
			s87.8,50.5,160.4,50.5c68.7,0,87.9-45.3,160.4-50.5c72.1-5.2,88,50.6,160.4,50.5c72.5-0.1,87.8-50.9,160.4-51
			c72.3-0.1,87.6,50.4,160.4,50.5c72.5,0.1,87-49.8,160.4-50.5"/>
		<path d="M-1374.4,1209.5c68.7,0,87.9-45.3,160.4-50.5c72.1-5.2,88,50.6,160.4,50.5c25.1,0,43.3-6.1,59.4-14.1
			c6.9-3.4,11.2-10.5,11.2-18.1V434.8c0-11.2-9.1-20.3-20.3-20.3h-459.4c-11.2,0-20.3,9.1-20.3,20.3v721.8c0,7.7,4.3,14.6,11.1,18.1
			C-1443,1189.5-1420,1209.5-1374.4,1209.5z M-1162.7,514.5h59.4c11.2,0,20.3,9.1,20.3,20.3v59.4c0,11.2-9.1,20.3-20.3,20.3h-59.4
			c-11.2,0-20.3-9.1-20.3-20.3v-59.4C-1183,523.6-1173.9,514.5-1162.7,514.5z M-1162.7,714.5h59.4c11.2,0,20.3,9.1,20.3,20.3v59.4
			c0,11.2-9.1,20.3-20.3,20.3h-59.4c-11.2,0-20.3-9.1-20.3-20.3v-59.4C-1183,723.6-1173.9,714.5-1162.7,714.5z M-1162.7,914.5h59.4
			c11.2,0,20.3,9.1,20.3,20.3v59.4c0,11.2-9.1,20.3-20.3,20.3h-59.4c-11.2,0-20.3-9.1-20.3-20.3v-59.4
			C-1183,923.6-1173.9,914.5-1162.7,914.5z M-1362.7,514.5h59.4c11.2,0,20.3,9.1,20.3,20.3v59.4c0,11.2-9.1,20.3-20.3,20.3h-59.4
			c-11.2,0-20.3-9.1-20.3-20.3v-59.4C-1383,523.6-1373.9,514.5-1362.7,514.5z M-1362.7,714.5h59.4c11.2,0,20.3,9.1,20.3,20.3v59.4
			c0,11.2-9.1,20.3-20.3,20.3h-59.4c-11.2,0-20.3-9.1-20.3-20.3v-59.4C-1383,723.6-1373.9,714.5-1362.7,714.5z M-1362.7,914.5h59.4
			c11.2,0,20.3,9.1,20.3,20.3v59.4c0,11.2-9.1,20.3-20.3,20.3h-59.4c-11.2,0-20.3-9.1-20.3-20.3v-59.4
			C-1383,923.6-1373.9,914.5-1362.7,914.5z"/>
		<path class="st9" d="M-1818,1193.6c45.1,14.1,68.3,43.7,123.8,43.7c72.6,0,87.9-50.5,160.4-50.5s87.8,50.5,160.4,50.5
			c68.7,0,87.9-45.3,160.4-50.5c72.1-5.2,88,50.6,160.4,50.5c72.5-0.1,87.8-50.9,160.4-51c72.3-0.1,87.6,50.4,160.4,50.5
			c56.8,0.1,78-30.5,119.8-44.1"/>
		<path class="st9" d="M-1682,1309.4c61.6-5.6,79.3-49.9,147.2-49.9c72.5,0,87.8,50.5,160.4,50.5c68.7,0,87.9-45.3,160.4-50.5
			c72.1-5.2,88,50.6,160.4,50.5c72.5-0.1,87.8-50.9,160.4-51c31.3,0,52,9.4,71.2,20.1"/>
		<g>
			<path class="st9" d="M-1172,1336.5c41,12.5,63.1,46.3,119.4,46.2c72.5-0.1,87.8-50.9,160.4-51c36.3,0,58.2,12.6,80.2,25.3"/>
			<path class="st9" d="M-1622,1362.1c24.9-14,47.5-29.8,88.2-29.8c72.5,0,87.8,50.5,160.4,50.5c50.2,0,73.9-24.2,111.4-39.2"/>
		</g>
		<g>
			<path class="st9" d="M-952,1418.3c16-7.8,34.1-13.7,58.8-13.8c16.1,0,29.5,2.5,41.2,6.4"/>
			<path class="st9" d="M-1332,1448.8c38.6-12.8,62.9-39.9,118-43.8c72.1-5.2,88,50.6,160.4,50.5c16.3,0,29.8-2.6,41.6-6.6"/>
			<path class="st9" d="M-1552,1406c5.4-0.7,11.1-1,17.2-1c58,0,79.4,32.3,122.8,45.2"/>
		</g>
	</g>
</g>
<g id="Drought" class="st0">
	<g class="st6">
		<path d="M597.5,111.1c5.3,4.4,15.9,15.6,30.4,43.3c16,30.5,29.9,67.4,42.1,99.9c10.2,27.1,18.3,48.5,26.5,63.5
			c23.3,42.8,52.1,83.5,79.9,122.8c44.9,63.3,87.2,123.1,107.1,189.6c12.6,42.1,15.4,85.5,8.3,128.8c-6.7,41.1-22.7,81.5-46.1,116.9
			c-49.5,74.9-127.9,123.6-215,133.4c-11.5,1.3-23.1,2-34.5,2c-45.9,0-89.6-10.4-130-30.9c-38.1-19.4-72.4-47.8-99-82.3
			c-27.4-35.4-46.8-77.3-56.2-121c-10-46.5-8.8-93.9,3.4-140.8c19-72.9,65.2-134.3,114.2-199.4c29.8-39.6,60.6-80.5,85.6-125
			c9-15.9,17.2-40.6,27.5-71.7c9.6-28.7,20.4-61.3,32.5-88.6C585,127.7,593,116.3,597.5,111.1 M595.3,62c-1,0-2,0-3.1,0.1
			c-58.4,4.5-95.3,185.4-118.7,226.9C409.7,402.7,303,495.1,269.3,624.6C212.1,844.3,374.1,1058,596.2,1058c13,0,26.3-0.7,39.7-2.3
			c209.4-23.7,353.1-235.9,292.3-438.9c-35.5-118.5-132.5-214.1-190.8-321.3C711.3,247.3,665,62,595.3,62L595.3,62z"/>
	</g>
</g>
<g id="Glacier" class="st0">
	<path class="st10" d="M-1312,409c13.9-19.6,27.5-32.7,37-41c15.9-13.8,17.8-11.4,36-27c23.8-20.4,28.3-31.1,41-31
		c4.8,0,12.2,4,27,12c11,5.9,17.1,9.2,25,15c11.8,8.6,14.5,13.1,21,13c7.8-0.2,9.7-6.8,17-7c8.8-0.3,15,9.1,21,16
		c10.7,12.4,13.1,8.2,43,29c26.6,18.5,40.5,28.2,53,46c9.4,13.3,7.4,16.1,19,32c9.1,12.5,16.4,19,32,34c37.6,36,30.4,31.2,48,47
		c28.7,25.7,36.3,27.9,49,45c10.5,14.1,16.5,27.6,20,37"/>
	<path class="st10" d="M-1006.6,416.2c22-7.5,40.2-9.9,54.6-10.2c12.3-0.2,31.3,0.9,57-6c19.6-5.2,34.9-12.9,49-20
		c17.1-8.6,31.3-15.7,47-28c34.4-26.9,43.2-52.7,61-50c6.5,1,11.1,5.3,15,9c16.3,15.4,12.2,37,21,39c7.2,1.7,11.3-12.4,23-13
		c8.4-0.4,14.4,6.4,24,16c0,0,3.3,3.3,36,32c24.4,21.5,51.1,29.1,79,37c24.6,7,37,10.5,51,8c16.4-2.9,24.8-10.5,36-6
		c11.5,4.6,8.2,14.9,21,24c14.5,10.4,24.6,1.2,47,12c10.4,5,17.1,11.3,21,15c17.1,16.3,23.3,35.4,25,40c6.8,18.9,30.3,50.2,102,105"
		/>
	<path class="st6" d="M-390.7,915c7.9-14,15.9-30,19.4-49c5-27.4,13.7-75.6-5.8-129c-5.8-16-16.5-34.3-43.3-58
		c-21.2-18.8-32.4-35.6-55.4-43c-41.3-13.3-38.4-24.6-59.2-39c-15.9-10.9-28.9-17.5-42.3-24c-41.9-20.3-62.9-30.5-93.3-42
		c-21.4-8.1-55.5-20.9-100.9-31c-56.1-12.5-57.5-5-111.5-18c-47.6-11.4-70.9-23.2-75.9-15c-5.1,8.2,11.3,31.4,29.8,45
		c13.9,10.3,19.9,8.5,51.9,21c29.3,11.5,44.3,17.5,57.7,31c5.9,6,20.4,20.9,25,44c2.5,12.6,1.5,24.4,1,30c0,0-1.4,15.6-5.8,28
		c-8.6,24.3-39.4,31.6-77.9,50c-22.9,11-43.2,24.6-83.6,52c-46.8,31.6-38.5,32.3-72.1,54c-27.8,17.9-86.3,55.7-156.7,74
		c-7.7,2-15.7,3.8-25,10c-4,2.6-7.5,5.7-10.8,9H-390.7z"/>
	<g class="st6">
		<path class="st9" d="M1978-200c13.9-19.6,27.5-32.7,37-41c15.9-13.8,17.8-11.4,36-27c23.8-20.4,28.3-31.1,41-31
			c4.8,0,12.2,4,27,12c11,5.9,17.1,9.2,25,15c11.8,8.6,14.5,13.1,21,13c7.8-0.2,9.7-6.8,17-7c8.8-0.3,15,9.1,21,16
			c10.7,12.4,13.1,8.2,43,29c26.6,18.5,40.5,28.2,53,46c9.4,13.3,7.4,16.1,19,32c9.1,12.5,16.4,19,32,34c37.6,36,30.4,31.2,48,47
			c28.7,25.7,36.3,27.9,49,45c10.5,14.1,16.5,27.6,20,37"/>
		<path class="st9" d="M2283.4-192.8c22-7.5,40.2-9.9,54.6-10.2c12.3-0.2,31.3,0.9,57-6c19.6-5.2,34.9-12.9,49-20
			c17.1-8.6,31.3-15.7,47-28c34.4-26.9,43.2-52.7,61-50c6.5,1,11.1,5.3,15,9c16.3,15.4,12.2,37,21,39c7.2,1.7,11.3-12.4,23-13
			c8.4-0.4,14.4,6.4,24,16c0,0,3.3,3.3,36,32c24.4,21.5,51.1,29.1,79,37c24.6,7,37,10.5,51,8c16.4-2.9,24.8-10.5,36-6
			c11.5,4.6,8.2,14.9,21,24c14.5,10.4,24.6,1.2,47,12c10.4,5,17.1,11.3,21,15c17.1,16.3,23.4,35.4,25,40c6.8,18.9,30.3,50.2,102,105
			"/>
		<path d="M2923.3,327c88.2-156.9-46.7-260.7-166.3-331.7c-114.5-67.9-272.7-112.5-405.9-111.3c34.8,59.2,98.9,47.7,143.4,92
			c21.6,21.5,31.8,53.3,24.7,83.4c-10.4,44.2-45.6,50-82.4,68.6c-56.7,28.7-103.8,70.4-155.7,106c-25.6,17.5-53.2,33-81.3,46.1
			c-32.5,15.2-85.5,20.6-111.2,46.9C2366.8,327,2645.1,327,2923.3,327z"/>
	</g>
	<path class="st11" d="M994.7,627.6l-67.5,53.4L627.1,172.8c0,0-109.1,177.4-162.5,261.9l235.7,291.3L315.8,381
		c0,0-271.9,553.2-281.3,564.5c0,0,1125.2,3.8,1130.9,0C1171,941.7,994.7,627.6,994.7,627.6z"/>
	<path class="st12" d="M738.5,1410.5"/>
</g>
<g id="River" class="st0">
	<path class="st13" d="M-1870.5,670.6c90.4,0,109.5,79.2,200,79.2c85.7,0,109.6-71,200-79.2c90-8.1,109.7,79.3,200,79.2
		c90.5-0.1,109.5-79.9,200-80c90.3-0.1,109.5,79.2,200,79.2c85.8,0,109.7-71.2,200-79.2"/>
	<path class="st13" d="M-1870.5,560.6c90.4,0,109.5,79.2,200,79.2c85.7,0,109.6-71,200-79.2c90-8.1,109.7,79.3,200,79.2
		c90.5-0.1,109.5-79.9,200-80c90.3-0.1,109.5,79.2,200,79.2c85.8,0,109.7-71.2,200-79.2"/>
	<g class="st6">
		<path class="st14" d="M1180,806.2c-87.3,11.7-110.4,115-193.3,115c-87.5,0-106.1-115.2-193.3-115c-87.4,0.2-105.8,116-193.3,116.2
			c-87.3,0.2-106.4-126.9-193.3-115c-87.4,11.9-110.5,115-193.3,115c-87.5,0-105.9-115-193.3-115V647.6c87.4,0,105.8,115,193.3,115
			c82.8,0,105.9-103.2,193.3-115c87-11.8,106.1,115.2,193.3,115c87.5-0.2,105.9-116,193.3-116.2c87.3-0.2,105.8,115,193.3,115
			c82.9,0,106-103.4,193.3-115V806.2z"/>
		<path class="st14" d="M1180,581.8c-87.3,11.7-110.4,115-193.3,115c-87.5,0-106.1-115.2-193.3-115C705.9,582,687.5,697.8,600,698
			c-87.3,0.2-106.4-126.9-193.3-115c-87.4,11.9-110.5,115-193.3,115c-87.5,0-105.9-115-193.3-115V423.2c87.4,0,105.8,115,193.3,115
			c82.8,0,105.9-103.2,193.3-115c87-11.8,106.1,115.2,193.3,115c87.5-0.2,105.9-116,193.3-116.2c87.3-0.2,105.8,115,193.3,115
			c82.9,0,106-103.4,193.3-115V581.8z"/>
		<path class="st14" d="M1180,357.4c-87.3,11.7-110.4,115-193.3,115c-87.5,0-106.1-115.2-193.3-115c-87.4,0.2-105.8,116-193.3,116.2
			c-87.3,0.2-106.4-126.9-193.3-115c-87.4,11.9-110.5,115-193.3,115c-87.5,0-105.9-115-193.3-115V198.8c87.4,0,105.8,115,193.3,115
			c82.8,0,105.9-103.2,193.3-115c87-11.8,106.1,115.2,193.3,115c87.5-0.2,105.9-116,193.3-116.2c87.3-0.2,105.8,115,193.3,115
			c82.9,0,106-103.4,193.3-115V357.4z"/>
	</g>
</g>
<g id="Wheat" class="st0">
	<path class="st6" d="M-1040,693c0.4,78.3-32.6,148.9-85.5,198.5c-7.9,7.4-20,7.4-28,0.1c-53.5-49-87.1-119.4-87.5-197.6
		s32.6-148.9,85.5-198.5c7.9-7.4,20-7.4,28-0.1C-1074,544.4-1040.4,614.7-1040,693z"/>
	<g class="st6">
		<path d="M-841.2,1545.1c-71.9-9.9-147.5,9.1-208,58.7c-48.6,39.8-79.6,93.1-92.3,150c-12.6-56.9-43.7-110.1-92.3-150
			c-60.5-49.6-136.1-68.6-208-58.7c-10.7,1.5-18.4,10.9-17.7,21.6c4.4,72.4,37.7,142.9,98.3,192.5c60.5,49.6,136.1,68.6,208,58.7
			c4.6-0.6,18.9-0.6,23.5,0c71.9,9.9,147.5-9.1,208-58.7c60.5-49.6,93.9-120.1,98.3-192.5C-822.9,1556-830.6,1546.5-841.2,1545.1z"
			/>
		<path d="M-841.2,1291.7c-71.9-9.9-147.5,9.1-208,58.7c-48.6,39.8-79.6,93.1-92.3,150c-12.6-56.9-43.7-110.1-92.3-150
			c-60.5-49.6-136.1-68.6-208-58.7c-10.7,1.5-18.4,10.9-17.7,21.6c4.4,72.4,37.7,142.9,98.3,192.5c60.5,49.6,136.1,68.6,208,58.7
			c4.6-0.6,18.9-0.6,23.5,0c71.9,9.9,147.5-9.1,208-58.7c60.5-49.6,93.9-120.1,98.3-192.5C-822.9,1302.6-830.6,1293.2-841.2,1291.7z
			"/>
		<path d="M-841.2,1038.4c-71.9-9.9-147.5,9.1-208,58.7c-48.6,39.8-79.6,93.1-92.3,150c-12.6-56.9-43.7-110.1-92.3-150
			c-60.5-49.6-136.1-68.6-208-58.7c-10.7,1.5-18.4,10.9-17.7,21.6c4.4,72.4,37.7,142.9,98.3,192.5c60.5,49.6,136.1,68.6,208,58.7
			c4.6-0.6,18.9-0.6,23.5,0c71.9,9.9,147.5-9.1,208-58.7c60.5-49.6,93.9-120.1,98.3-192.5C-822.9,1049.3-830.6,1039.9-841.2,1038.4z
			"/>
		<path d="M-841.2,785.1c-71.9-9.9-147.5,9.1-208,58.7c-48.6,39.8-79.6,93.1-92.3,150c-12.6-56.9-43.7-110.1-92.3-150
			c-60.5-49.6-136.1-68.6-208-58.7c-10.7,1.5-18.4,10.9-17.7,21.6c4.4,72.4,37.7,142.9,98.3,192.5c60.5,49.6,136.1,68.6,208,58.7
			c4.6-0.6,18.9-0.6,23.5,0c71.9,9.9,147.5-9.1,208-58.7c60.5-49.6,93.9-120.1,98.3-192.5C-822.9,796-830.6,786.5-841.2,785.1z"/>
	</g>
	<g class="st6">
		<g>
			<path class="st15" d="M1084.8,193.4c-45.3,45.7-105.5,67.6-165,65.6c-8.8-0.3-15.9-7.3-16.3-16.2c-2.6-59.6,18.7-120,64-165.7
				c45.3-45.7,105.5-67.6,165-65.6c8.8,0.3,15.9,7.3,16.3,16.2C1151.3,87.3,1130,147.7,1084.8,193.4z"/>
			<g>
				<path class="st15" d="M705.1,804.1c-36-47.5-91-80.4-155-86.8c-51.4-5.1-100.3,7.8-140.8,33.5c25.7-40.4,38.6-89.4,33.5-140.8
					c-6.3-64-39.3-119-86.8-155c-7-5.3-17-4.4-22.9,2.3c-39.5,44.6-61.1,105-54.8,169c6.3,64,39.3,119,86.8,155
					c3,2.3,11.3,10.6,13.6,13.6c36,47.5,91,80.4,155,86.8s124.3-15.2,169-54.8C709.5,821.1,710.5,811.1,705.1,804.1z"/>
				<path class="st15" d="M852.3,656.8c-36-47.5-91-80.4-155-86.8C646,565,597,577.9,556.6,603.6c25.7-40.4,38.6-89.4,33.5-140.8
					c-6.3-64-39.3-119-86.8-155c-7-5.3-17-4.4-22.9,2.3c-39.5,44.6-61.1,105-54.8,169c6.3,64,39.3,119,86.8,155
					c3,2.3,11.3,10.6,13.6,13.6c36,47.5,91,80.4,155,86.8c64,6.3,124.3-15.2,169-54.8C856.7,673.8,857.7,663.9,852.3,656.8z"/>
				<path class="st15" d="M999.6,509.6c-36-47.5-91-80.4-155-86.8c-51.4-5.1-100.3,7.8-140.8,33.5c25.7-40.4,38.6-89.4,33.5-140.8
					c-6.3-64-39.3-119-86.8-155c-7-5.3-17-4.4-22.9,2.3c-39.5,44.6-61.1,105-54.8,169c6.3,64,39.3,119,86.8,155
					c3,2.3,11.3,10.6,13.6,13.6c36,47.5,91,80.4,155,86.8c64,6.3,124.3-15.2,169-54.8C1003.9,526.6,1004.9,516.7,999.6,509.6z"/>
				<path class="st15" d="M1146.8,362.4c-36-47.5-91-80.4-155-86.8c-51.4-5.1-100.3,7.8-140.8,33.5c25.7-40.4,38.6-89.4,33.5-140.8
					c-6.3-64-39.3-119-86.8-155c-7-5.3-17-4.4-22.9,2.3c-39.5,44.6-61.1,105-54.8,169c6.3,64,39.3,119,86.8,155
					c3,2.3,11.3,10.6,13.6,13.6c36,47.5,91,80.4,155,86.8c64,6.3,124.3-15.2,169-54.8C1151.1,379.4,1152.1,369.5,1146.8,362.4z"/>
			</g>
		</g>
		<path class="st15" d="M63.9,1096.3L63.9,1096.3c-12.5-12.5-12.5-33.1,0-45.6l243.4-243.4c12.5-12.5,33.1-12.5,45.6,0l0,0
			c12.5,12.5,12.5,33.1,0,45.6l-243.4,243.4C97,1108.9,76.4,1108.9,63.9,1096.3z"/>
	</g>
	<g class="st6">
		<g>
			<path d="M97.8,1608.3c-21,21.2-49,31.4-76.7,30.5c-4.1-0.1-7.4-3.4-7.6-7.5c-1.2-27.7,8.7-55.8,29.8-77
				c21-21.2,49-31.4,76.7-30.5c4.1,0.1,7.4,3.4,7.6,7.5C128.8,1559,118.9,1587,97.8,1608.3z"/>
			<g>
				<path d="M-78.7,1892.2c-16.8-22.1-42.3-37.4-72.1-40.3c-23.9-2.4-46.6,3.6-65.4,15.6c12-18.8,17.9-41.6,15.6-65.4
					c-2.9-29.8-18.2-55.3-40.3-72.1c-3.3-2.5-7.9-2-10.6,1c-18.4,20.7-28.4,48.8-25.5,78.5c2.9,29.8,18.2,55.3,40.3,72.1
					c1.4,1.1,5.3,4.9,6.3,6.3c16.8,22.1,42.3,37.4,72.1,40.3c29.8,2.9,57.8-7.1,78.5-25.5C-76.6,1900.1-76.2,1895.4-78.7,1892.2z"/>
				<path d="M-10.2,1823.7c-16.8-22.1-42.3-37.4-72.1-40.3c-23.9-2.4-46.6,3.6-65.4,15.6c12-18.8,17.9-41.6,15.6-65.4
					c-2.9-29.8-18.2-55.3-40.3-72.1c-3.3-2.5-7.9-2-10.6,1c-18.4,20.7-28.4,48.8-25.5,78.5c2.9,29.8,18.2,55.3,40.3,72.1
					c1.4,1.1,5.3,4.9,6.3,6.3c16.8,22.1,42.3,37.4,72.1,40.3c29.8,2.9,57.8-7.1,78.5-25.5C-8.2,1831.6-7.7,1827-10.2,1823.7z"/>
				<path d="M58.2,1755.3c-16.8-22.1-42.3-37.4-72.1-40.3c-23.9-2.4-46.6,3.6-65.4,15.6c12-18.8,17.9-41.6,15.6-65.4
					c-2.9-29.8-18.2-55.3-40.3-72.1c-3.3-2.5-7.9-2-10.6,1c-18.4,20.7-28.4,48.8-25.5,78.5c2.9,29.8,18.2,55.3,40.3,72.1
					c1.4,1.1,5.3,4.9,6.3,6.3c16.8,22.1,42.3,37.4,72.1,40.3c29.8,2.9,57.8-7.1,78.5-25.5C60.2,1763.2,60.7,1758.6,58.2,1755.3z"/>
				<path d="M126.6,1686.9c-16.8-22.1-42.3-37.4-72.1-40.3c-23.9-2.4-46.6,3.6-65.4,15.6c12-18.8,17.9-41.6,15.6-65.4
					c-2.9-29.8-18.2-55.3-40.3-72.1c-3.3-2.5-7.9-2-10.6,1c-18.4,20.7-28.4,48.8-25.5,78.5c2.9,29.8,18.2,55.3,40.3,72.1
					c1.4,1.1,5.3,4.9,6.3,6.3c16.8,22.1,42.3,37.4,72.1,40.3c29.8,2.9,57.8-7.1,78.5-25.5C128.7,1694.8,129.1,1690.1,126.6,1686.9z"
					/>
			</g>
		</g>
		<path d="M-374.6,2030.2l-4.2-4.2c-4.7-4.7-4.7-12.3,0-17l117.4-117.4c4.7-4.7,12.3-4.7,17,0l4.2,4.2c4.7,4.7,4.7,12.3,0,17
			l-117.4,117.4C-362.3,2034.8-370,2034.8-374.6,2030.2z"/>
	</g>
</g>
<g id="Cyclone" class="st0">
	
		<image style="display:inline;overflow:visible;" width="1020" height="1014" xlink:href="../../../../Desktop/Screen Shot 2018-09-17 at 13.18.08.png"  transform="matrix(0.2486 0 0 0.2486 -405 69)">
	</image>
	
		<image style="display:inline;overflow:visible;" width="1014" height="1020" xlink:href="../../../../Desktop/Screen Shot 2018-09-17 at 13.17.57.png"  transform="matrix(0.5 0 0 0.5 -627 378)">
	</image>
	<path class="st6" d="M190,1219c4.2,43.9-60,70-125.3,93.9c-33.5,12.3-66.5,16.9-102.2,15.5c-11.6-0.5-71.6,0.3-61.6-17.2
		c4.7-8.2,17.1-7.7,24.9-8.6c48.3-5.2,100.3-24.5,124.2-68.9c14-25.9,27.4-46.7,60.6-42.7C132.2,1193.5,187.6,1193.8,190,1219z"/>
	<path class="st16" d="M1515.8,130.3c-4.6-1.4-9.9-2.4-15.4-3.1c-6.2-0.8-8.7-8.4-4.2-12.7c0,0,0.1-0.1,0.1-0.1
		c17.4-16.5,42.9-16.8,64.5-8.4c3.1,1.2,6-2.7,3.7-5.2c0,0-0.1-0.1-0.1-0.1c-23.9-25.2-81.4-13.1-108.1,12.2
		c-3.5,3.3-7.1,7.4-10.4,11.8c-3.8,5-11.6,3.4-13.1-2.7c0,0,0-0.1,0-0.1c-5.6-23.3,6.9-45.5,25-60.1c2.6-2.1,0.6-6.6-2.6-5.8
		c0,0-0.1,0-0.1,0c-33.8,8.1-52.1,64-43.5,99.7c1.1,4.7,2.8,9.8,5,14.9c2.4,5.7-2.9,11.8-8.9,10c0,0-0.1,0-0.1,0
		c-23-6.8-36-28.7-39.5-51.7c-0.5-3.3-5.4-3.8-6.3-0.6c0,0,0,0.1,0,0.1c-9.9,33.4,29.4,77.1,64.6,87.6c4.6,1.4,9.9,2.4,15.4,3.1
		c6.2,0.8,8.7,8.4,4.2,12.7c0,0-0.1,0.1-0.1,0.1c-17.4,16.5-42.9,16.8-64.5,8.4c-3.1-1.2-6,2.7-3.7,5.2c0,0,0.1,0.1,0.1,0.1
		c23.9,25.2,81.4,13.1,108.1-12.2c3.5-3.3,7.1-7.4,10.4-11.8c3.8-5,11.6-3.4,13.1,2.7c0,0,0,0.1,0,0.1c5.6,23.3-6.9,45.5-25,60.1
		c-2.6,2.1-0.6,6.6,2.6,5.8c0,0,0.1,0,0.1,0c33.8-8.1,52.1-64,43.5-99.7c-1.1-4.7-2.8-9.8-5-14.9c-2.4-5.7,2.9-11.8,8.9-10
		c0,0,0.1,0,0.1,0c23,6.8,36,28.7,39.5,51.7c0.5,3.3,5.4,3.8,6.3,0.6c0,0,0-0.1,0-0.1C1590.3,184.5,1551.1,140.8,1515.8,130.3z
		 M1471,192.3c-10.6,0-19.2-8.6-19.2-19.2c0-10.6,8.6-19.2,19.2-19.2s19.2,8.6,19.2,19.2C1490.2,183.8,1481.6,192.3,1471,192.3z"/>
	<path class="st17" d="M1088.3,319.5c-0.1-0.2-0.2-0.4-0.3-0.6c-79.5-136.9-409-143.7-553.8-59.7c-14.2,8.2-29.1,18.3-44,29.7
		c-10.4,7.9-25.5,0.6-25.6-12.5c0-0.1,0-0.2,0-0.3c-0.2-109,78.2-194.3,173.9-239.7c13.8-6.5,9.7-28.4-5.5-28.4c-0.2,0-0.4,0-0.7,0
		c-158.3,0.4-329,282.4-328.6,449.8c0,16.4,1.3,34.4,3.7,52.9c1.7,13-12.3,22.4-23.6,15.9c-0.1-0.1-0.2-0.1-0.3-0.2
		C189.2,472.2,154.5,361.5,163,256c1.2-15.2-19.8-22.6-27.3-9.5c-0.1,0.2-0.2,0.4-0.3,0.6c-78.8,137.3,80,426.1,225.2,509.5
		c14.2,8.2,30.4,16.1,47.7,23.2c12.1,5,13.3,21.8,1.9,28.4c-0.1,0.1-0.2,0.1-0.3,0.2c-94.2,54.7-207.4,29.4-294.5-30.8
		c-12.6-8.7-29.4,5.8-21.9,18.9c0.1,0.2,0.2,0.4,0.3,0.6c79.5,136.9,409,143.7,553.8,59.7c14.2-8.2,29.1-18.3,44-29.7
		c10.4-7.9,25.5-0.6,25.6,12.5c0,0.1,0,0.2,0,0.3c0.2,109-78.2,194.3-173.9,239.7c-13.8,6.5-9.7,28.4,5.5,28.4c0.2,0,0.4,0,0.7,0
		c158.3-0.4,329-282.4,328.6-449.8c0-16.4-1.3-34.4-3.7-52.9c-1.7-13,12.3-22.4,23.6-15.9c0.1,0.1,0.2,0.1,0.3,0.2
		c94.5,54.3,129.2,164.9,120.6,270.5c-1.2,15.2,19.8,22.6,27.3,9.5c0.1-0.2,0.2-0.4,0.3-0.6c78.8-137.3-80-426.1-225.2-509.5
		c-14.2-8.2-30.4-16.1-47.7-23.2c-12.1-5-13.3-21.8-1.9-28.4c0.1-0.1,0.2-0.1,0.3-0.2c94.2-54.7,207.4-29.4,294.5,30.8
		C1079,347.1,1095.9,332.6,1088.3,319.5z M590.9,657.7c-55.1,0-99.7-44.6-99.7-99.7c0-55.1,44.6-99.7,99.7-99.7s99.7,44.6,99.7,99.7
		C690.6,613.1,646,657.7,590.9,657.7z"/>
</g>
<g id="China">
	<path class="st15" d="M799.9,260.4l15.1,24.8c1.5,2.4,4,4.1,6.8,4.6l50.6,7.9c5.3,0.8,9,5.9,8.1,11.2l-3.1,18.4
		c-0.7,3.9-3.6,7.1-7.5,7.9l-82.5,17.8c-2.9,0.6-5.4,2.5-6.7,5.2l-29.8,60.8c-1.6,3.4-5.1,5.5-8.8,5.4l-280.7-2.8
		c-1.7,0-3.4-0.5-4.8-1.3L214,278c-3.4-2-7.7-1.7-10.8,0.7l-97.9,75.7c-3,2.3-4.4,6.1-3.5,9.8l15.5,69.2c1.1,4.7-1.5,9.5-6.1,11.2
		l-90.7,33.9c-5.1,1.9-7.6,7.7-5.6,12.7l25.1,62.1c0.9,2.3,2.7,4.1,4.9,5.2l106.3,49.2c3.3,1.5,5.4,4.7,5.6,8.4l3.7,79.7
		c0.2,4,2.8,7.4,6.5,8.7l290.6,101c3.4,1.2,7.2,0.4,9.9-2.1l45.7-43.3c2.8-2.7,7-3.4,10.6-1.8l103.8,45.6c4.7,2.1,7,7.4,5.2,12.2
		l-11.1,30.3c-1,2.8-0.7,5.8,0.8,8.3l56.3,93.4c2.6,4.4,8.2,6,12.7,3.6l95.6-49c3.5-1.8,7.8-1.3,10.8,1.3l61.8,53.2
		c3.1,2.7,7.6,3.1,11.1,1.1l10.6-6c6.3-3.6,14.1,0.7,14.5,7.9l0,0c0.3,6.5,6.8,10.8,12.9,8.7l162.3-57.6c2.5-0.9,4.5-2.8,5.6-5.2
		l55.3-124c1.3-2.9,1.1-6.3-0.6-9l-98.6-160.7c-2.3-3.7-1.8-8.5,1.2-11.7l34.6-37.3c5.8-6.2,1.4-16.3-7.1-16.3h-36.8
		c-1.9,0-3.7,0.5-5.2,1.5l-9.3,6c-4.6,3-10.7,1.5-13.6-3.2l-29.6-49.3c-2.4-4-1.6-9.2,1.9-12.3l33.7-29.7c4.7-4.1,12-2.8,15,2.7
		l23.7,44.5c2.7,5.1,9.2,6.7,13.9,3.5l38.6-25.7l87.9-60.5c2.6-1.8,4.2-4.8,4.2-8V306.7c0-4.4-3-8.3-7.3-9.4l-142.8-36.4
		c-1.7-0.4-3.2-1.3-4.4-2.5L925.3,153.7c-1.8-1.8-4.3-2.8-6.8-2.8h-91.2c-6.4,0-11.1,6.1-9.3,12.3l18.3,65.6
		c1.5,5.4-1.8,10.9-7.3,12.1l-22.8,5C799.6,247.3,796.4,254.7,799.9,260.4z"/>
</g>
</svg>
