<?xml version="1.0" encoding="utf-8"?>
<!-- Generator: Adobe Illustrator 22.1.0, SVG Export Plug-In . SVG Version: 6.00 Build 0)  -->
<svg version="1.1" id="Cyclone" xmlns="http://www.w3.org/2000/svg" xmlns:xlink="http://www.w3.org/1999/xlink" x="0px" y="0px"
	 viewBox="0 0 1200 1120" style="enable-background:new 0 0 1200 1120;" xml:space="preserve">
<style type="text/css">
	.st0{fill:#FFFFFF;}
</style>
<path class="st0" d="M1088.3,319.5c-0.1-0.2-0.2-0.4-0.3-0.6c-79.5-136.9-409-143.7-553.8-59.7c-14.2,8.2-29.1,18.3-44,29.7
	c-10.4,7.9-25.5,0.6-25.6-12.5c0-0.1,0-0.2,0-0.3c-0.2-109,78.2-194.3,173.9-239.7c13.8-6.5,9.7-28.4-5.5-28.4c-0.2,0-0.4,0-0.7,0
	c-158.3,0.4-329,282.4-328.6,449.8c0,16.4,1.3,34.4,3.7,52.9c1.7,13-12.3,22.4-23.6,15.9c-0.1-0.1-0.2-0.1-0.3-0.2
	C189.2,472.2,154.5,361.5,163,256c1.2-15.2-19.8-22.6-27.3-9.5c-0.1,0.2-0.2,0.4-0.3,0.6c-78.8,137.3,80,426.1,225.2,509.5
	c14.2,8.2,30.4,16.1,47.7,23.2c12.1,5,13.3,21.8,1.9,28.4c-0.1,0.1-0.2,0.1-0.3,0.2c-94.2,54.7-207.4,29.4-294.5-30.8
	c-12.6-8.7-29.4,5.8-21.9,18.9c0.1,0.2,0.2,0.4,0.3,0.6c79.5,136.9,409,143.7,553.8,59.7c14.2-8.2,29.1-18.3,44-29.7
	c10.4-7.9,25.5-0.6,25.6,12.5c0,0.1,0,0.2,0,0.3c0.2,109-78.2,194.3-173.9,239.7c-13.8,6.5-9.7,28.4,5.5,28.4c0.2,0,0.4,0,0.7,0
	c158.3-0.4,329-282.4,328.6-449.8c0-16.4-1.3-34.4-3.7-52.9c-1.7-13,12.3-22.4,23.6-15.9c0.1,0.1,0.2,0.1,0.3,0.2
	c94.5,54.3,129.2,164.9,120.6,270.5c-1.2,15.2,19.8,22.6,27.3,9.5c0.1-0.2,0.2-0.4,0.3-0.6c78.8-137.3-80-426.1-225.2-509.5
	c-14.2-8.2-30.4-16.1-47.7-23.2c-12.1-5-13.3-21.8-1.9-28.4c0.1-0.1,0.2-0.1,0.3-0.2c94.2-54.7,207.4-29.4,294.5,30.8
	C1079,347.1,1095.9,332.6,1088.3,319.5z M590.9,657.7c-55.1,0-99.7-44.6-99.7-99.7c0-55.1,44.6-99.7,99.7-99.7s99.7,44.6,99.7,99.7
	C690.6,613.1,646,657.7,590.9,657.7z"/>
</svg>
