<?xml version="1.0" encoding="utf-8"?>
<!-- Generator: Adobe Illustrator 22.1.0, SVG Export Plug-In . SVG Version: 6.00 Build 0)  -->
<svg version="1.1" id="Drought" xmlns="http://www.w3.org/2000/svg" xmlns:xlink="http://www.w3.org/1999/xlink" x="0px" y="0px"
	 viewBox="0 0 1200 1120" style="enable-background:new 0 0 1200 1120;" xml:space="preserve">
<style type="text/css">
	.st0{fill:#FFFFFF;}
</style>
<g>
	<path class="st0" d="M604.8,65.3L604.8,65.3L604.8,65.3 M597.8,73.3c6.2,6.5,16.3,19.5,29.4,44.9c16.9,32.8,31.7,72.1,44.7,106.7
		c11.3,30.1,20.3,53.9,29.5,70.7c25.8,47.5,57.7,92.5,88.5,135.9C839.1,501,885.6,566.5,907.3,639c13.7,45.6,16.7,92.6,9,139.5
		c-7.3,44.5-24.6,88.3-50,126.7c-53.7,81.3-138.6,134-233.1,144.6c-12.5,1.4-25.1,2.1-37.4,2.1c-49.7,0-97.1-11.2-140.8-33.4
		c-41.3-21-78.4-51.8-107.3-89.1c-29.7-38.4-50.8-83.8-60.9-131.2c-10.8-50.4-9.6-101.8,3.7-152.7c20.6-79.3,71.3-146.6,125-217.9
		c32.9-43.8,67-89,94.8-138.5c10.1-18,19.3-45.4,30.8-80.1c10.3-30.9,21.9-65.9,34.9-95.3C585.4,92.4,592.9,80.1,597.8,73.3
		 M594.8,11c-1.1,0-2.3,0-3.4,0.1c-64.3,5-105.1,204.4-130.8,250.1c-70.5,125.3-188.1,227.2-225.3,369.9
		C172.3,873.5,351,1109,595.8,1109c14.4,0,29-0.8,43.8-2.5c230.9-26.1,389.3-260.1,322.3-483.9c-39.1-130.6-146.1-236-210.3-354.2
		C722.7,215.3,671.7,11,594.8,11L594.8,11z"/>
</g>
</svg>
