<?xml version="1.0" encoding="utf-8"?>
<!-- Generator: Adobe Illustrator 22.1.0, SVG Export Plug-In . SVG Version: 6.00 Build 0)  -->
<svg version="1.1" id="Flooding" xmlns="http://www.w3.org/2000/svg" xmlns:xlink="http://www.w3.org/1999/xlink" x="0px" y="0px"
	 viewBox="0 0 1200 1120" style="enable-background:new 0 0 1200 1120;" xml:space="preserve">
<style type="text/css">
	.st0{fill:#FFFFFF;}
</style>
<g>
	<path class="st0" d="M1178.2,939L683.9,82.9c-36.4-63.1-127.5-63.1-164,0L25.7,939c-36.4,63.1,9.1,142,82,142h988.5
		C1169.1,1081,1214.6,1002.1,1178.2,939z M1015.6,985.9H188.2c-31.5,0-51.3-34.2-35.5-61.5l413.7-716.6c15.8-27.3,55.2-27.3,71,0
		l413.7,716.6C1066.9,951.8,1047.2,985.9,1015.6,985.9z"/>
</g>
<path class="st0" d="M255.3,947.1h693.3c26.5,0,42.9-28.6,29.7-51.5l-44-76.1c-22.3,4.9-46.3,23.6-69.4,31.8
	c-32.1,11.3-61.7,5.7-91.7,0c-21-4-55.1-15.1-84.6-27.6c-22.5-7.5-58.6-34.1-72.9-69.9c-13.6-29.6-19-63.3,1-97.2
	c12.1-17.1,33.5-22.4,46.8-27.4c13.1-3.7,29.6-6.3,45-4.5c23.8,2.8,49,8.2,52.1-5c4-12.5-21.1-33.8-42.1-43.1
	c-9.2-3.9-31.6-9.8-51.4-12.1c-16.8-2-40.4-2.6-68.3,3.7c-30.2,6.9-50.8,19.7-71.2,34.3c-27.4,19.7-44.2,43-61.9,69.6
	c-28.3,42.5-64.3,71-91.7,82.1c-36.4,14.8-59.5,19-82.3,27.1l-66.1,114.5C212.3,918.5,228.8,947.1,255.3,947.1z"/>
</svg>
