<?xml version="1.0" encoding="utf-8"?>
<!-- Generator: Adobe Illustrator 22.1.0, SVG Export Plug-In . SVG Version: 6.00 Build 0)  -->
<svg version="1.1" id="Glacier" xmlns="http://www.w3.org/2000/svg" xmlns:xlink="http://www.w3.org/1999/xlink" x="0px" y="0px"
	 viewBox="0 0 1200 1120" style="enable-background:new 0 0 1200 1120;" xml:space="preserve">
<style type="text/css">
	.st0{fill:#FFFFFF;}
</style>
<path class="st0" d="M982.1,592.2l-61,72c-1.1,1.1-2.2,2-3.6,2.7c-6.1,2.9-13.7,0.9-17.3-5.3l-271-475.9c-5.1-8.7-17.6-8.8-22.9-0.2
	C577.9,231.5,504.2,351,460.5,420.4c-2.9,4.6-2.7,10.5,0.4,14.9c0.3,0.5,0.7,0.9,1.1,1.3c0,0,183.7,213,184,213.4
	c9.3,12.7-7.8,28.6-19.8,17.7L299.8,386.5c-6.6-5.9-17-3.9-20.9,4c-36.8,74.9-174,394.2-232.1,508.2c-9.4,18.6,4,40.5,24.8,40.6
	c211.8,0.7,1079.7,3.1,1084.6-0.1c4.9-3.3-119.1-283.7-153-344.2c-3.5-6.3-11.2-8.5-17.4-5.5C984.4,590.2,983.2,591.1,982.1,592.2z"
	/>
</svg>
