<?xml version="1.0" encoding="utf-8"?>
<!-- Generator: Adobe Illustrator 22.1.0, SVG Export Plug-In . SVG Version: 6.00 Build 0)  -->
<svg version="1.1" id="Layer_1" xmlns="http://www.w3.org/2000/svg" xmlns:xlink="http://www.w3.org/1999/xlink" x="0px" y="0px"
	 viewBox="0 0 494.7 265.7" style="enable-background:new 0 0 494.7 265.7;" xml:space="preserve">
<style type="text/css">
	.st0{fill:#A2B4BC;}
	.st1{fill:#FFFFFF;}
</style>
<g id="a">
	<path class="st0" d="M275.9,201.8l-1.4,1.5h-2.4v-2.1l1.8-1.2h1.9v1.8H275.9z M279.9,195.5v2.1l-1.8-1.1v-1.6h1.8v-6h-4.6
		l-10.9,7.3l-2.7-3.1v6.1h-6.6l3.9,10.6h12.7l9.8-11.3l0.4-3.1L279.9,195.5L279.9,195.5z M108.3,76.1l2.5-1.7h3l-2.5,1.7
		C111.4,76.1,108.3,76.1,108.3,76.1z M131.3,67l-3.2,2.8h-7.5l-2.3,1.6h1.8l-2.5,1.7h-1.8l2.5-1.7h-4.9l-2.1,1.6l-2.2,0.2l0.4-3.7
		H108l-1.9,1.3l-3.6,5.3h-2.1l4.1-6.6l4.8-1l-0.3-0.9l-3.2-0.1l-1.5-0.9l-1.9,0.9h-2.2l0.9-1.9l-4.6-2.1H57.7L44.9,76.9v10.4
		l4.7,4.7l16.3,2l2.2,3.3l4.6-0.2l3.8,7.4l7.1-8.9l16.8,0.1l1.1,8.4l2.7,0.1l0.1-10.4l27.2-23.2l1.9-0.3l1.1-3.3H131.3L131.3,67z
		 M147.4,65.5h9.5l-2-3.1l-1.8-0.4v-2.3L147.4,65.5z M77.1,116.3l-3.7-7.9l3-3.8l-3.8-7.4L68,97.4L65.9,94l-16.3-2.1l0,0l0.7,7.3
		l5,9.5l2.1-1.6l-4-8.4V94h2.3l0.1,4.4l7.5,17.6l12.2,5.1l3.1-0.8l2.7,2.7l1.3-2.4h2.8l-0.4-3.1h2.4l3.1-2.3l0.1-3.4l-3.4-0.1
		l-2.7,4.5L77.1,116.3z M212.5,39.9l4.5-2.2v-0.6l-2.2-2.3l-3.1,1l-3.8-0.1l-0.8,1.1H205v2L212.5,39.9z M252.9,87.9v-2.1l-2.4-0.1
		v1.6L252.9,87.9z M160.8,19.3v2.3l11.3,0.2l2.9,5v4.5l-5.4,3.1l0.2,6.1l3.4,3.4h4l6.1-6.5l8.7-2.6l3.2-2.5l6.6-0.4l4.6-1.4
		l8.6-13.8l5.3-1.1l1.9-1.9l-15.4-1.5l-13.3,1.5h-16.1l-9.3,3.2L160.8,19.3z M422.4,106.3l-1.3-1.4L419,108l2.1,2L422.4,106.3z
		 M401.8,68.4l0.4-2.4l-4.5-0.7l-1.7-2.8h-8.6l-17.6-4.3l-1.9,4.3l-7.1-2.2l-5.3,4.1l17.4,10.1l20.1,0.2l2.4-4.9L401.8,68.4z
		 M405.6,114.4L403,115v1.5l1,1.3l1.5-1.9v-1.5H405.6z M396,62.5l1.7,2.8l4.5,0.7l-0.4,2.4l-6.5,1.4l-2.4,4.9l-20.1-0.2l-17.4-10.1
		l-7.5,5.7l1.2,5.8l-7.5,2.8l2.1,5.3l8,3.7l0.3,6.4l20.9,7.2l3.9-3.5l8.2,3.5l-1.1,3.1l4.4,7.2l7.6-3.9l5,4.3l2.1-1.2l0.1,2.1
		l12.5-4.5l4.1-9.1l-7.3-12l3.7-4.1h-4.3l-1.4,0.9l-2.7-4.4l3.4-3l2.4,4.5l3.3-2.3l6.4-4.4V66l-10.5-2.7l-7.7-7.6h-7.5l1.7,6.1
		L396,62.5z M439.4,75.2h2.9l1.2-2.1l-6.5-2.7l0.1,5.4l1.3,0.8L439.4,75.2z M431.3,87.7l-0.5,1.7l6.5-1l0.5,2.5l1.5-0.6l0.2-2
		l4.3-1.1l-0.2-5.7l-2-3.4l-2-0.6l1.1,5.2l-4,3.6L431.3,87.7z M430.1,90.9l2.3-0.3l0.8,1.1l-0.8,2.7L430.1,90.9z M436.4,89.8
		l-1.1,2.1l-1.5-1.7L436.4,89.8z M429.3,124.8l-3.5-0.4l-1.3-1.6l1.3-3l-1.3-2.8l-2.3-0.1l-0.6,5l3.3,4l3.9,0.5L429.3,124.8z
		 M418.1,133.7l1.6,0.3l2.8-2.3l-0.1-1.9L418.1,133.7z M430.4,137.3v2.2l2.3-0.7l-0.8-1.4l1.9-0.5l-1.6-5L431,135h-3.9L430.4,137.3z
		 M423.5,126.2l1.7,1.6l-0.5,1l-1.3-1.3L423.5,126.2z M425.1,130.2l1.2,0.8l1.3-1.9l-1.7-0.2L425.1,130.2z M429.5,128.1l1.6,2.1h1.8
		l-1.7-2.7L429.5,128.1z M429.5,129.9l0.9,1.6l-0.7,1l-1.3-1.9L429.5,129.9z M427.6,131.5l0.8,1.2l-0.8,1l-1-1.2L427.6,131.5z
		 M430.8,164.2l1.1,1.5l3.1-0.4v-1.1H430.8z M406.2,146.6l0.1,4.3l2.5,4.3h7.8l3.9-4.9v-9l-2.8,0.3l-2.3,4.3l-7.6,1.7L406.2,146.6
		L406.2,146.6z M400.6,157.9v-3.3l-12.9-13.4l-4.4-1.7l14.9,20.3L400.6,157.9z M415.7,163.8l0.2,1.1l-16.1-2.7l2.4-1.9l4,1.5
		l3.6-0.8L415.7,163.8z M426,163.8h-2.5l0.5,1.6h2.4l1-0.8L426,163.8z M421.6,166.4l0.7,0.9h1.7l-0.6-1.3L421.6,166.4z M430.8,164.2
		l-2.5,2.8l1.9,0.2l1.7-1.5L430.8,164.2z M422.5,159.3l1.9-0.6l-0.6-3.3l1.1-1.2l0.9,2.4l2.2,0.8v-1.7l-1.2-2.8l2.4-2l-3.8,0.2
		l-0.8-1.1l1.5-1.6l2.8,1l1.4-0.1l2-2.4h-1.8l-1.2,0.8l-3.9-0.9l-2.6,2.3l0.2,3.7l-1.5,2L422.5,159.3z M436.4,154.1l-0.4,1.5
		l4.2-0.4v-1.1H436.4z M437.3,144.4l-1.4,1.4l-0.5,3.4l1.9,0.5l-0.4-3.1l1.1-1.4L437.3,144.4z M446.8,153.5l-0.6-3l-4.6,0.6
		L446.8,153.5z M446.5,156l6.4,2.7l1.1,3.3l-2.1,1.3l5.5,1.9v-10.8L453,152l-4.1,3.4l-4.4-1.7l-0.5,2.4L446.5,156z M427.5,84.8
		l-4.3-3.5l-1.9,1.8l2.6,5.6l3.1-0.2L427.5,84.8z M423.1,81.3l-1.9-1.6l2.5-0.3l-0.4-4.9l-6.4,4.4l1.9,3.5l2.5,0.7L423.1,81.3z
		 M417.6,138.3l-3.4,4.6l-7.9,3.7l1.6,1l7.6-1.7l2.3-4.3l2.8-0.3V138L417.6,138.3z M391.3,138.3l1.4,4.5l5.7,4.8l0.4-1.7l-5.4-7.9
		L391.3,138.3z M459.4,165.9l3.8-3.5l4.9,4.8l4.5,0.9l-5.6-5.6l0.3-2.9l-9.9-5.2v10.8L459.4,165.9z M469.9,160.1l2,1.2l3.5-1.9v-2
		L469.9,160.1z M472.7,154.4l4,2.9l1.6-0.6l-4.1-2.4L472.7,154.4z M388.4,111.6l-4.4-7.2l1.1-3.1l-2.5-1.1l-3.4,2.4l-1.6,11l2.5,2.1
		l1,5l1.8,0.5l1.3-1.6l2.4,2.7l1.3,4.9l-0.3,5l2-4L386,115l2.5-1.8L388.4,111.6z M395.7,117.8l2.9,4l-2.7,2.7h6.1v-1.6l-6-6.3
		l-1.3-4.1l-4.1-2l-2.2,1.1v1.7l2.1,1.2v3.2L395.7,117.8z M390.5,117.8v-3.2l-2.1-1.2l-2.5,1.8l3.6,13.2l-2,4l-0.1,2l3.5,3l0.3,1.1
		l2.1-0.3l-3.4-5.1l0.8-7.8l3.9,3.8v-3.2l3.9-3.9l-2.9-4L390.5,117.8z M394.6,125.7v3.2l1.9,1.9l2.2-0.3l3.2-2.4v-3.6h-6.1
		L394.6,125.7z M396,116.6l6,6.3v5.2l-3.2,2.4l0.1,3.5l6.2-4.1l-0.2-6.1l-6.5-6.8l0.3-3.7l2.3-1.3l-5-4.3l-5.4,2.8l4.1,2L396,116.6z
		 M370.2,103.4l-1.4,0.6l1.9,6.1l1.2-1.2l5.6,4.7l0.4-2.5l-2.9-2.7l-0.5-3.3l-2.3,1L370.2,103.4z M372.3,102.9l-3.4-0.8l0.5-2.1
		l-1-0.3l-2.1,3.3l-11.4-4.3v-3.6l-2.8-1l-0.3-6.4l-2.5-1.1H347l-3.4,2.4l-0.1,2.1l2.1,1.2l1,4l-4.5,4.1h-2.9v3l2.1,0.8v2.6l-3.9,1
		l0.3,0.4l3.2,1l-1.5,1.5l1.4,1.8l2.5,0.3l0.5-2.1h1l8.1,23.4l5.2-3.2l0.8-9.4l11.8-11.4l-1.9-6.1l1.4-0.6l2,2.7l2.3-1l0.5,3.3
		l2.9,2.7l1.2-8.5l3.4-2.4l-5.7-2.5l-3.9,3.5L372.3,102.9z M355,95v3.6l11.4,4.3l2.1-3.3L355,95z M369.3,100l-0.5,2.1l3.4,0.8
		l0.8-1.7L369.3,100z M304.9,72.8l2.4,2l3.1-0.8l2.7,2.3l-0.5-5.9l4.2-1l5.5,3.8l4.6-0.9l3.4,4.5l3.3-0.1l3.2-2.6l7.5-0.3l4.8,2.2
		l-1.2-5.8l7.5-5.7l-4.3-2.5l-25.2-8.9l-10,2.2v4.5h-17.6v5.8l2.4,3l5-2l3,2l-3.6,1.8L304.9,72.8z M324.3,86.7l-1.7-2.7l-6.6-2.1
		l-3.9,1.3l-0.1,1.7h-5l-2.7-4.8l-6.5,0.6v1.9l8,13.5l2.4,0.2l5.5,5.7l10.1,3h2.8l2-3.5l-2.2-2.8l-3.2-9.3L324.3,86.7z M313.1,76.2
		l-2.7-2.3l-3.1,0.8l4.9,4.1l-0.2,4.3l3.9-1.3l6.6,2.1l1.7,2.7l6.3-3.2l-10.4-8.3h-4.4L313.1,76.2z M339.3,100.2h2.9l4.5-4.1l-1-4
		l-2.1-1.2l0.1-2.1l3.4-2.4h2.3l-4.8-2.2l-5.1,0.7l-1.6,7l-5.9,5.4l-6.3-0.1l0.5,1.4l2.2,2.8l-2,3.5h8.8l2.3,2.6l3.9-1v-2.6
		l-2.1-0.8L339.3,100.2L339.3,100.2z M322.4,73.2l-5.5-3.8l-4.2,1l0.5,5.9l2.7-1.1h4.4l10.4,8.3l3.4,0.9l-1.5-4.5l4.8-1.4l0.3-2
		l-7.1,0.3l-3.4-4.5L322.4,73.2z M324.3,86.7l-1.3,2.7l2.7,7.9l6.3,0.1l5.9-5.4l1.6-7l-1-2.9l-4.5,2.3l-3.4-0.9L324.3,86.7z
		 M338,80.7l-4-1.3l-1.6,0.5l1.5,4.5l4.5-2.3l1,2.9l5.1-0.7l-0.8-0.3l-1.5-3.6L338,80.7z M336.8,74l-3.2,2.6l3.8-0.2l-0.3,2
		l-3.2,0.9l4,1.3l4.3-0.4l-0.7-1.6l7.5-2.8l-4.8-2.2L336.8,74z M298.3,77.7l2.9,2.6l3.1-0.3l-2.2-3.8l-2.4-0.6L298.3,77.7z
		 M292.1,76.7l4.3,1.1h1.9l1.5-2.1l-5.5-2.5l-2.2,0.5L292.1,76.7L292.1,76.7z M297.7,80.7l3.4-0.3l-2.9-2.6h-1.9L297.7,80.7z
		 M265.2,48l-1.1,0.3l0.3,0.2l-0.3,1.5l-3.2-1.5v1.9l4.3,1.1l3.1,1.4l1.2-1l-0.4-3.1l-1.6,0.5L265.2,48z M260.9,52.5l2.4,0.8
		l0.7,1.4l0.5,1.5l3.8-3.2l-3.1-1.4l-4.3-1.1V52.5z M273.1,51.8h-3.6l-5,4.3l0.8,2.2l7.2,1.2l4.5-1l-2.7-1.1l1.6-1L273.1,51.8z
		 M263.1,46.2l-0.4,1l1.4,1l1.1-0.3l2.3,1.3l1.6-0.5l-0.5-3.5l-0.9,0.8L263.1,46.2z M272.5,59.5l-7.2-1.2l0.5,1.3l-2.6,3.2v1.8h9.8
		l0.9,1.8l-1.7,2.6l1.5,0.6l0.4-1.2h5.8l-1.3,1.3l1.8,1l2.4-0.2l-2.3-2.9l6-1.3l1.5-3.4l-11-4.5L272.5,59.5z M258.7,31.3l-10.1,7.4
		v6.6l-1.4,2.2l3.8,4.4l6.2-5.5l-2.9-3.6l6.5-7.1h1.3l-1.8-4.3L258.7,31.3z M240.9,48l5.9-1l0.4,0.5l1.4-2.2v-6.6l10.1-7.4h5.6v-1.8
		l-5.7,0.3L239,43.3L240.9,48z M264.3,31.3h-3.9l1.8,4.3h1l-3.1,7.1l3.7,1.9h5.6l3.1-3.6l-5.2-11.7l-2.9,0.1v1.9H264.3z M433.7,63.7
		h1.9l-6.8-7l-1.9-0.1l5.5,6.8l2.7,5h2L433.7,63.7z M263.2,53.3l-2.4-0.8v1.6l3.1,0.6L263.2,53.3z M407.3,29.2l-1.9-2.5L394,24.8
		l-3.2,2.9h-9.3l-3.9-2.9h-20.9l-1.3-4.6h-19.3l-17,7.6l3.7,4.6l-3.2,3.3l-2.9-9.5l-5.1-0.4l2.5,5.6L294.2,32l-18.6,7.6l-2.5-4.7
		l7.1,0.3l3.4-1.7l-13.5-4.3l-2.9,0.1l5.2,11.7l-3.1,3.6l-0.8,0.7l0.5,3.5l0.4,3.1h3.6l2.8,4.5l-1.6,1l2.7,1.1l11,4.5l-1.5,3.4
		l0.7,1.7l-1.8,0.5l0.3,2.8l6.4,2.2l2.2-0.5l5.5,2.5l2.4,0.6l-1.5-2.6v-5.2l-2.4-3v-5.8h17.6v-4.5l10-2.2l25.2,8.9l4.3,2.5l5.3-4.1
		l7.1,2.2l1.9-4.3l17.6,4.3h8.6l3.2-0.6l-1.7-6.1h7.5l7.7,7.6L423,66v8.5l4.6-0.8l2.5-3.7v-6.9L423,55l-6.9-0.1l1.2-8.5l14.2,0.1
		l1.5-4.8l6,2.3v-2.2l1.5,0.2l2.6,2.5l-2.5,1.7l-0.3,5.1l10.1,9.6v-9.2l-5.7-5.5l13.5-4.3l0.2-1.4l-6.8-1.8l2.6-2.1l6.1,1.3l4.1,0.1
		l-3.3-3.5l-21.2-4.2L407.3,29.2z M256.2,65.1l-2.5,2l3.6,1.3l3.9-0.7l3.1-3.2h-1.2v-0.8L256.2,65.1z M254.4,63.3l1.9,1.8l6.8-1.3
		v-1.1l-6.2-0.8l-0.3-0.1L254.4,63.3z M241.3,68.3l2.2,0.2l2-0.5l-0.7-2.2H243l-1.2,0.6L241.3,68.3z M249.8,63.3h4.6l2.2-1.4
		l-4.4-1.7l-3.9,1.2L249.8,63.3z M219.2,84.3l0.9,0.1l1-8.7l-3.4-0.6l-0.2,6.4L219.2,84.3z M272.1,69l1.7-2.6l-0.9-1.8H270L272.1,69
		z M263.9,54.6l-3.1-0.6l-3.2,0.1l-0.7-0.7l-4.6,1.1h-0.4l0.4,5.6l4.4,1.7l0.2,0.1l6.2,0.8l2.6-3.2l-0.5-1.3l-0.8-2.2L263.9,54.6z
		 M264.3,64.6l-3.1,3.2l2.7,4.6l6.8-0.8l2,0.5l0.8-2.5L272,69l-2.1-4.4H264.3z M251.8,54.6l-5.9-0.1l-0.3-1.1h-2.1l0.4,1l-3.1,1.9
		l-0.3,5.4l1.9,1l-0.8,3.6l1.2-0.6h4.4l0.4-0.1l3.2-0.9l-1.1-1.5l-1.5-1.9l3.9-1.2L251.8,54.6z M243.6,53.5h2.1l-0.1-0.4l0.7-3.8
		h-1.9l-1.3,3L243.6,53.5z M249.1,52.2l-1.2-1.2l-1,0.4l-0.3,1.6h1.9L249.1,52.2z M250.9,64.8l-3.6,1h-2.5l0.7,2.2l3.8-0.9h4.4
		l1.8-1.5l0.7-0.5l-1.9-1.8h-4.6L250.9,64.8z M253.1,82.2h-3.9v1l1.4,1l2.4,0.4v-2.4H253.1z M243,76.7v4h1.9v-3.4L243,76.7z
		 M241.3,68.3L241,70l2.2,1h2.6l8,8l0.4,3.4l1.5-0.9l0.5-2.4l1.8-0.4l-9.8-8.4l2.8-0.2l-1.6-3l-5.8,1.3L241.3,68.3z M243.9,74v1.6
		l0.9,0.3l0.4-2L243.9,74L243.9,74z M225.4,64v1.2l3.3,1.8l0.4,5.9L234,76l1.5-2l7.2,0.1l0.2-3h0.2l-2.2-1l1.5-7.3l-6.6-3.4
		l-7.7,4.6L225.4,64z M237.8,58.3l-1.8,1.1l3.7,1.9l1.1-0.6v-0.9L237.8,58.3z M240.7,59.8l0.2-3.4l-3.1,1.9L240.7,59.8z M239.6,61.3
		l1,0.5l0.1-1.1L239.6,61.3z M227.6,52.9v2.5l-1.7,0.9l1.5,2.2l-3,2.9l4-0.7l4.1-0.6l0.3-1.5h0.8l0.2-1.7l-2.6-0.6l-3.3-7.6
		l-2.5-0.1v4.1L227.6,52.9z M224.4,54.7v-1.6l-2.9-0.2l1.7,2.3L224.4,54.7z M218.5,55.1v4.4h1.7V58l3.2,0.4l-0.2-3.3l-1.7-2.3
		L218.5,55.1z M220.1,84.4l7.1,0.5l7-8.9l-4.9-3.1L217.9,73l-0.1,2.2l3.4,0.6L220.1,84.4z M235.7,80.6v-1.9l-2.2,1.9H235.7z
		 M261.5,78.4L266,77l-1-2.4l-3.7,0.7L261.5,78.4z M258.6,68.3l0.8,4.6l1.8,2.5l3.7-0.7l-0.9-2.2l-2.7-4.6L258.6,68.3z M251,70.1
		h0.4l2.1-1.1l0.9-1.6l-0.7-0.3h-4.4L251,70.1z M273.3,79H270l2.7,5.5l12.6,0.7l12.4-2.5v-1.9l-1.4-3l-4.3-1.1l-17.2,0.6L273.3,79z
		 M270,77.7h3.1l-1.2-2.7l-1.9,0.6V77.7z M256.2,74.2l1.1,0.3l2.1-1.6l-0.6-3.4l-4.6,0.6L256.2,74.2z M259.8,78.9l1.4,1.6l2.7,0.8
		l-1.7,0.7l2.2,2.8l1.4-2.2l-1.5-3.4l3.1-1.5h2.5v-2.1L259.8,78.9z M257.4,68.5l-2.9-1.1l-0.9,1.6l-2.1,1.1h0.7l3.4,3.9l0.7,0.2
		l-1.9-4.1l4.5-0.6l-0.2-1.2L257.4,68.5z M258.7,74.8l1.6-0.9l-0.8-1.1l-2.1,1.6l2.2,4.2l0.2,0.3l1.7-0.5l-0.2-3.1l-1-1.4
		L258.7,74.8z M265.9,77l5.9-1.9l1-3l-2-0.5l-6.8,0.8L265.9,77z M309.7,105.1l1.4,0.9l0.9-0.9l-1.6-2.2L309.7,105.1z M282.5,86.6
		l-3.6,1.3l2.6,0.6L282.5,86.6z M284.9,91.2v6.5l1.4,0.2l2-0.9l0.6-3.6l1.6-0.7h0.1l-0.5-1.9l-3.2,1.9L284.9,91.2z M309.2,104.8
		l-3.5-5.8h-1.5l-1.1-1.4h-3l-9.6-5l-1.6,0.7l-0.6,3.6l-2,0.9l-1.3-0.2l12.5,21.7l0.2,0.8l1.3-2.2l4.4,0.6l-0.4,1.7l6.3-3.3l8.9-2.4
		v-4.6l-4.6-0.7l-1.4-2.6L309.2,104.8z M301.6,97.6h1.4l1.1,1.4h1.5l-1.9-3.1H302L301.6,97.6z M292.6,89l-2.6,1.6l0.5,2l9.5,5h1.6
		L302,96h3.5l-7.8-13.3l-3.6,0.7L292.6,89z M315.4,107.4l-3.4-0.7l1.4,2.6l2.6,0.4l3.7-3.8l-1.7-1.5L315.4,107.4z M316.1,109.6
		l2,0.3v4.6l-4.5,1.2v2.7l2.5,1.7l8.2-10.2l-4.5-4L316.1,109.6z M286.3,88.5l-1.5,2.7l1.9,1.4l5.9-3.5l1.4-5.7l-8.8,1.8l-0.6,2.8
		L286.3,88.5z M309.2,116.9l-6.3,3.3l0.4-1.7l-4.4-0.6l-1.3,2.2l2.2,7.2l16.3-7.3l-2.5-1.7v-2.7L309.2,116.9z M284.9,91.2l1.5-2.7
		l-1.6-0.6l-0.6,2.7L284.9,91.2z M284.8,97.7L284.8,97.7v-6.5l-0.7-0.5l-1.1,4.1L284.8,97.7z M298.2,189.9l1.7,4l4.1,0.2l6.9-22.2
		h-2.5l-8,8.4l-0.8,5.8L298.2,189.9z M253.5,135.3l-1.2-3.5h2.4l-2.9-6.2v3.4l-4.2,8.7l-3.6,0.2l-0.5,3.6h1.6l-0.1,3.6h10l0.4-1.3
		l0,0l-3-4.2L253.5,135.3z M247.7,147.7h-2.8l-0.1,4.3l3.6,4.9v-4.1h4.7l-2.4-7.7h-3l0,0h-2.8l-0.1,2.6H247.7z M238.2,138.6l0.6,2.9
		h4.5l0.5-3.6l3.6-0.2l4.2-8.7v-3.4H236l-2.5,12.3L238.2,138.6z M215.1,136.2l1.1,1.3v5.4l8.5-2.5v-7.9l-8.3-1.6v4.1L215.1,136.2z
		 M216.3,142.9v-5.4l-3.1-3.5l-2.7,2.6L216.3,142.9z M267.6,167.9l-2.9-1.4v-5.4h-3.3l-0.7,2.4l-3.3,0.1l-0.9-3h-5.3v11.7l-3,4.9
		l0.3,3.2H267l-3-3.8v-4.2h3.7L267.6,167.9z M230.6,138.8l-1.4-8.4h-4.4v10.1L230.6,138.8z M250.6,145.1l2.4,7.7h-4.7v4.1l1.8,2.4
		l4.4-2l4.7-7.8l0.7-5.8h-4.6l-0.4,1.3L250.6,145.1z M294,123.8l2.8,4.3l1-0.9l-7-12l-3.6,8.5L294,123.8L294,123.8z M210.5,136.6
		l2.7-2.6l-2.8-3.1l-2.7,2.7L210.5,136.6z M297.5,131l1.8-1.3l-1.4-2.5l-2.1,1.7L297.5,131z M284.6,170v2.6l2.3,1.5v3.2l-2.1,1.9
		v-3.8l-2.1-1.8h-0.1l-4.1,2.8l4.1,2.7v3.7l-2.5,5.9v6.6h1.8l0.1-0.9l3.8-2.7l-0.3-8l8.9-7.3l-0.9-8.4L284.6,170z M299.3,129.7
		l-1.8,1.3l1.8,2l7.1,2.5l-11.1,9.2v8l17.4-20.2L312,129l-12.1,1.8L299.3,129.7z M255.1,199.2h6.7v-17h8.8l-1.1-1.6h-21L255.1,199.2
		z M288,140.9l-3,0.4l0.9,3.7l-0.4,3.2l-1.4,2.4l8.3,5.5l2.9-3.4v-8l3.2-2.7h-9.4L288,140.9z M284.1,150.6l-0.5,0.9h-3l0.8-1.3H280
		l-3.1,7.6l5.6,7.8h2.1v4.4l8.9-1.9l-1.1-12.1L284.1,150.6z M216,103.1h-5v5.7l-1.8,2.8h-6.1l-0.2,6.4l7.5,5.4v-1.9h9l-0.9-15.4h4.8
		l-7.3-5.4V103.1z M278.8,153.3l1.2-3.1h-2.6l-0.8,3.6L278.8,153.3z M276.9,157.8l1.8-4.5l-2.2,0.5l-0.6,2.6L276.9,157.8z
		 M204.8,130.5l2.9,3.1l2.7-2.7l2.8,3.1l1.9,2.2l1.4-1.2v-4.1l-0.6-2.9h-8.6L204.8,130.5z M219.4,121.4h-9v1.9l2,4.6h3.4l0.6,3
		l4.2,0.8v-4.2l16-6.5v-5.3l-13.3-9.8h-4.8L219.4,121.4z M274.9,169.1l3.2,1.3l-1.1,2.2l-9.5-4.7l0.1,4.7H264v4.2l3,3.8h5.7l9.8-6.8
		v-8.1l-1.2-1.7l-5.4,0.8L274.9,169.1z M261.7,193.1l2.7,3.1l10.9-7.3l-4.8-6.7h-8.8L261.7,193.1L261.7,193.1z M220.6,131.7l4.2,0.8
		v-2.2h4.4l5.1-1.9l-4.9-4.4l-8.8,3.6V131.7z M282.5,165.6v8.1h0.1l2.1,1.8v3.8l2.1-1.9v-3.2l-2.3-1.5v-7h-2L282.5,165.6
		L282.5,165.6z M296.8,128.1l-2.8-4.3h-6.8l-4.8,11.3l6.6,6.9h9.4l7.9-6.5l-7.1-2.5l-3.5-4L296.8,128.1z M277.3,150.2h4l1.1-2h3
		l0.4-3.2l-0.9-3.7l-5.7,0.8L277.3,150.2z M236.6,115.8v5.3l-7.2,2.9l4.9,4.4l1.3-0.5l0.5-2.4h15.6l3.5-7.2l-1.4-9.5h-7L236.6,115.8
		z M203.1,111.6h6.1l1.8-2.8v-5.7h4.9v-3.4h-5.4l-7.3,9.6L203.1,111.6z M202.7,124.1l4.9,1.4h-5l-0.1,2.4h9.9l-2-4.6l-7.5-5.4
		L202.7,124.1z M207.6,125.6l-4.9-1.4l-0.1,1.4H207.6z M255.2,118.3l-3.5,7.2l2.9,6.2h-2.4l1.2,3.5l11.7-5.5v-6l2.6-2.6l0.3-5.8
		l-10.1-6.5h-4L255.2,118.3z M255.3,94.7l-2.1-2.6l-4.6-1.1l-4.2,4.6l2.8,13.3H258l10.1,6.5l1-22.4l-5.9-0.8l-2.4,3.7L255.3,94.7z
		 M215.1,99.7h0.9V99l12.2-6.7v-4.8l-9,0.9l-8.7,11.3L215.1,99.7z M228.2,87.5v4.8L216,99v1.6l20.6,15.2l10.3-7h0.2l-5-24.2
		l-5.9-0.2L228.2,87.5z M242.1,84.6l2.3,10.9l4.2-4.6l-1.7-0.4l0.2-5.8L242.1,84.6z M269.4,180.6l5.9,8.3h4.6l2.5-5.9v-3.7l-4.1-2.7
		l-5.8,4L269.4,180.6L269.4,180.6z M272.1,203.2h2.4l1.4-1.5v-1.9H274l-1.8,1.2v2.2H272.1z M279.9,194.9h-1.8v1.6l1.8,1.1V194.9z
		 M284.8,97.8L284.8,97.8l-1.8-3l-14-1.9l-0.8,17h15.4l3.1-1.8l-6.4-11l3.5,2.8L284.8,97.8z M286.7,108.1l-3.1,1.8h-15.4l-0.5,11.2
		l-2.6,2.6v6l9.2,10.6l4.9,1.8l8.8-1.2l-5.5-5.8l4.8-11.3l3.6-8.5L286.7,108.1z M275.9,156.4l3.4-14.2l-4.9-1.8l-13.9,0.4l-1.1,8.8
		l-4.7,7.8l-4.4,2l1,1.3h5.3l0.9,3l3.3-0.1l0.7-2.4h3.3v5.4l12.4,6.1l1.1-2.2l-3.2-1.3l1-4.4l5.4-0.8L275.9,156.4z M252.4,139.5
		l3,4.2h4.7l0.4-3.1l13.9-0.4l-9.2-10.6l-11.7,5.5L252.4,139.5z M235.6,128l-4.4,1.6l1.4,8.6l0.9-0.2L235.6,128z M231.2,129.6
		l-2,0.8l1.4,8.4l2.1-0.6L231.2,129.6z M204.8,130.5l2.4-2.6h-4.7v0.1L204.8,130.5z M68.5,30.2l-3.7-1.5l-19.1,0.1L38,31.9v3.4
		l-8.7-0.1l-1.6,2.3l7.3-0.3l-9.4,3.5L21,47l3.9-0.1l-7.5,4.9l2.7,0.2l14.4-6.9l16.6-0.6l5,5l1.9-2.1l-1.7-1.7h-1.9l-1.8-2.1
		L68.5,30.2L68.5,30.2z M56,62.2L53.4,60l-1.1,1l1.8,2.4H56V62.2z M156.8,65.5l-2-3.1L153,62v-2.3l-5.7,5.8H156.8z M153.8,29.2
		l-11.5-4.7h-1.7l-4,3.3l1.3-3.3H136l-4.7,5l11.4-0.6l6.9,6.2l-4.7-0.1l-2.4,1.9h-5.3v1.5h5.4l4.6,3.8l1.2-0.5l-1.1-2.4l3.1,1.5
		l1-0.4v-4.7L155,37l2.1-1.4l-1.2-2.2l-2.1-0.8V29.2z M114.9,71.3h3.3l2.3-1.6h7.5l3.2-2.8h2.9l-1.1,3.3l5.1-0.9l-3.4,1.6l0.3,1.4
		l9.2-3.2l-4.5-0.2l-2.1-1.9l2.1-3.2l-1-1l-6.5,2.9V64l6.2-3l9.9-0.4l7.5-4v-1.8l-5.4-0.9L150,45l-7.1,2.8l0.1-4.2l-3.4-2.9h-4.7
		l-12.6,18.4h-3.1l0.1-6l-10.9-5.9l10.9-8.1l6.2-1.1l-1.3-1.9l9.5-1l3.9-4l-3.6-0.4l-5,3.3l0.6-2.8l-2.3-0.2l-0.6-3.4l-4,1.8
		l1.1,2.2l-5.4,2.6l-9.4-1.8l-5,2.3l-12.1-4.8l-23.1,0.5L52.7,43.8l1.8,2.1h1.9l1.7,1.7l-1.9,2.1l-1.9,8.8l3.5,3.1v1.7h38.8l4.6,2.1
		l7.7-1.6l1,3.4l1.6,1.2l2.6-0.2L114.9,71.3z M128.9,36.8l-3,2.4l5.8,0.6l0.6-1.5L128.9,36.8z M117.5,30.7l1.1,1.4l2.8-1.4l-0.8-1.3
		L117.5,30.7z M119.6,26l1.8,1.8l3.8-1.3l1-2.6L119.6,26z M126.8,24.9l0.5,1.7l5.1-1.4l-1-1.4L126.8,24.9z M139.9,21.4l-2.8-1.2
		l-2.7,2.3l11.1,0.9l2.9-2C148.4,21.4,139.9,21.4,139.9,21.4z M166.9,15.1l5.8-3.3l-23,1.7v1.2l7.8-0.2l-1.1,1.4l-8.1,0.2l1.1,1.9
		l-3.5-0.6l1.4,1.8h-6l0.9,0.9h6.5l1.1,0.9l9.5-4.4L166.9,15.1z M138.8,16.5l4.3,0.8l2.5-1.6l-1.8-1.3L138.8,16.5z M93.5,27.7
		l10.1-3.4l-2.3-1.1l-9.5,2.4L93.5,27.7z M104.8,24.9l-5.4,1.8l3.2,1.3l-5,1.3l6.2,2.4l4.3-1.9l4.8,1.1l3.6-0.8l-3.5-1.6l2.7-3.5
		H113l-1.6,2.1l-0.7-2.1l-2.8,1.1L104.8,24.9z M97,109.8h4.9l4,2.7l-1.5,1.7h6.9l-8.3-6h-4.4L97,109.8z M103.9,117.2l1,0.9h3V117
		l-1-1.1h-3V117.2z M122.2,116.4l-0.6,1h1.7l0.6-1H122.2z M85.5,120.7h-2.8l-1.3,2.4l4,2l2.7-4.9l-0.5-2.6H85L85.5,120.7z
		 M88.6,124.6l-0.5,1.7l0.7,0.3l6.7-5.6l-8,0.1l-1.3,2.4L88.6,124.6z M88.1,126.3l0.5-1.7l-2.5-1.1l-0.9,1.5L88.1,126.3z
		 M90.6,115.2l-3.1,2.3l0.5,2.6L90.6,115.2z M91.4,130.1l4.3,0.5l-0.2-9.5l-6.7,5.6L91.4,130.1z M98.4,156.4l3.6,1.7l6.3-7.8
		l-6.5-3.7l-3.1,3.9L98.4,156.4z M111.4,128.9h-1.7l-3.6,4.9l-1.8,0.1l0.5,1.8l-1,1.4l0.7,2.5l-0.7,4.6l-2.1,2.6l14.8,8.4v-9.5
		l3.4-0.2V138l-5.6-0.6l-2.4-2.7L111.4,128.9z M134.9,243.7l2.2,2l6.8,0.2l-7.3-3.8L134.9,243.7z M145.3,194.9l-3,1.8h-4v-3.5
		l-8.1-5.5l-0.5,0.8H123l-1.8,16.9l3.8,16.8l3.5,6.2l0.2,4.6l5.1,7.9l1.9,0.2l-1-20.1l10.9-4.7l-4.9-6.9v-7.6l4.8-4.9L145.3,194.9z
		 M146.5,211.5l2.4-4.1l-8.2-5.6v7.6L146.5,211.5z M123.5,131.6l-3.7-2.6l-8.5-0.1l0.5,5.7l2.4,2.7l5.6,0.6v7.5l0.9-0.1l1.1,2.6
		l3.7-1.2l-0.3-4l4.9-1.8l1.4-7.2l-1.6-1.6L123.5,131.6z M91.4,130.1l2.9,3.9l1,0.4l1.5-1.9l-1-0.6v-1.4L91.4,130.1z M136.8,138.6
		l-5.1-4.9l-1.4,7.2l2.1-0.8l-0.3,6.1l4.9-0.6l-1.7-4.3L136.8,138.6z M124.2,168.1l-5,1.4V181l3.8,7.6h6.8l2.6-4.8h5.1l-0.1-3.8
		l-8.7-7.1L124.2,168.1z M141.4,145.2l3.3-0.4l1-2.8l-1.3-2.8l-2.7-0.2L141.4,145.2z M137.5,183.7h-5.1l-2.2,4l8.1,5.5v3.5h4l3-1.8
		l-0.2-2.8l-7.4-4L137.5,183.7z M137,145.7l4.4-0.5l0.2-6.2l-4.8-0.4l-1.5,2.8L137,145.7z M157.6,151.9l-3.7-1.6l-3.7,2.2l1.2-3.3
		l-2.5-1.1l-3.5,2.7l2.6-3.8l-2.2-4.9l-1,2.8l-12.6,1.4l0.3-6.1l-2.1,0.8l-4.9,1.8l0.3,4l-3.7,1.2l-1.1-2.6l-4.3,0.3v11.2l-4.4,0.5
		l-1.9,6.3l7.4,6.3l6.6-1.9l4.5,4.6l8.7,7.1l0.3,8.3l7.4,4l0.3,4.6l-4.8,4.9l8.2,5.6l4.8-8.4l1.1-7.2l11.7-5.2l2.2-16.1l5-6.6v-4
		l-8.2-5.4l-8.1-0.5L157.6,151.9z M99.9,132.3l-1.4,1.1l-1.8-1l-1.5,1.9l4.3,1.5l1-1.6l2.5,0.2l0.7,2.4l1-1.4l-0.4-1.6l-0.5-2
		L99.9,132.3z M112.1,157.3l4.4-0.5v-1.7l-8.3-4.7l-6.3,7.8l-3.6-1.7l-0.1,1.8l10.8,18.4l9.3,6.2l0.8-1.9v-11.4l-1.6,0.5l-7.4-6.3
		L112.1,157.3z M125,222.2l-3.8-16.8l1.8-16.9l-3.8-7.6l-0.8,1.9L120,221l4.1,3.3l0.2,6.9l7.2,9.3l2.3,0.2l-5.1-7.9l-0.2-4.6
		L125,222.2z M120,115l-4.9-0.5v2.7l1.6-1.2h2.6L120,115z M115.1,116.5v-2h-3l1,1.4h-1.8v0.6H115.1z"/>
	<path class="st0" d="M481.4,220l-1,3.2l7.3-5.2l-2.1-2.8V212l-1.2,0.5v4.5L481.4,220z M462.2,230.5l15.2-7.7v2l-11.7,7.7
		L462.2,230.5z M399.9,191l12.8-6l9.5-10.5l5.2,2.3l2.3-4.8l8.7-0.2l-2.2,4l7.2,6.2l4.8-4.8v-6.7l2.2,0.7l2.5,12l7.8,11l-0.8,8.3
		l-14.2,14.7l-12.3-0.7l-1.5-8.3l-4.2,1.8l-4-3.5l-24.3,5.3l-1.5-1.8l2-4.8V191z"/>
</g>
<polygon class="st0" points="275.9,201.8 274.5,203.3 272.1,203.3 272.1,201.1 274,199.9 275.9,199.9 "/>
<polygon class="st0" points="279.9,195.5 279.9,197.6 278.1,196.5 278.1,194.9 279.9,194.9 279.9,188.9 275.3,188.9 264.4,196.2 
	261.7,193.2 261.7,199.2 255.1,199.2 258.9,209.8 271.6,209.8 281.3,198.5 281.8,195.5 "/>
<polygon class="st0" points="108.3,76.1 110.9,74.4 113.9,74.4 111.4,76.1 "/>
<polygon class="st0" points="131.3,67 128.1,69.8 120.6,69.8 118.3,71.3 120.1,71.3 117.6,73 115.9,73 118.3,71.3 113.5,71.3 
	111.3,73 109.2,73.2 109.6,69.5 108,69.5 106,70.8 102.4,76.1 100.3,76.1 104.4,69.5 109.2,68.5 108.9,67.6 105.8,67.5 104.3,66.5 
	102.4,67.5 100.2,67.5 101.1,65.5 96.5,63.4 57.7,63.4 44.9,76.9 44.9,87.3 49.6,91.9 65.9,94 68.1,97.3 72.7,97.2 76.5,104.6 
	83.5,95.8 100.3,95.8 101.4,104.2 104.1,104.3 104.2,93.8 131.3,70.6 133.2,70.3 134.2,67 "/>
<polygon class="st0" points="147.4,65.5 156.9,65.5 154.9,62.4 153.1,62 153.1,59.7 "/>
<polygon class="st0" points="77.1,116.3 73.4,108.4 76.5,104.6 72.7,97.2 68.1,97.3 65.9,94 49.6,91.9 49.6,92 50.3,99.3 
	55.4,108.8 57.4,107.2 53.4,98.8 53.4,94 55.8,94 55.9,98.4 63.4,116.1 75.6,121.2 78.7,120.4 81.3,123.1 82.7,120.7 85.5,120.7 
	85.1,117.6 87.5,117.6 90.7,115.3 90.8,111.9 87.4,111.8 84.6,116.3 "/>
<polygon class="st0" points="212.5,39.9 217,37.7 217,37.1 214.8,34.8 211.6,35.8 207.9,35.8 207.1,36.9 204.9,36.8 204.9,38.8 "/>
<polygon class="st0" points="252.9,87.9 252.9,85.7 250.5,85.7 250.5,87.2 "/>
<polygon class="st0" points="160.8,19.3 160.8,21.6 172.1,21.7 175,26.7 175,31.2 169.6,34.3 169.7,40.4 173.1,43.8 177.2,43.8 
	183.3,37.4 192,34.8 195.2,32.3 201.8,31.9 206.4,30.6 215,16.8 220.4,15.7 222.2,13.8 206.9,12.3 193.6,13.8 177.5,13.8 168.2,17 
	"/>
<polygon class="st0" points="422.4,106.3 421.1,105 419,108 421.1,110 "/>
<polygon class="st0" points="401.8,68.4 402.2,66 397.7,65.3 396,62.5 387.4,62.5 369.8,58.1 367.9,62.5 360.8,60.3 355.4,64.3 
	372.8,74.5 392.9,74.7 395.3,69.8 "/>
<polygon class="st0" points="405.6,114.4 403,115 403,116.5 404.1,117.8 405.6,115.8 "/>
<polygon class="st0" points="396,62.5 397.7,65.3 402.2,66 401.8,68.4 395.3,69.8 392.9,74.7 372.8,74.5 355.4,64.3 347.9,70.1 
	349.2,75.9 341.7,78.7 343.8,83.9 351.8,87.6 352.1,94 373.1,101.3 376.9,97.7 385.1,101.3 384,104.3 388.4,111.6 396,107.7 
	401,112 403.1,110.8 403.2,112.8 415.6,108.4 419.7,99.2 412.4,87.3 416.2,83.2 411.9,83.2 410.5,84.1 407.8,79.6 411.2,76.6 
	413.6,81.1 416.9,78.9 423.3,74.5 423.3,66 412.7,63.3 405,55.7 397.5,55.7 399.2,61.8 "/>
<polygon class="st0" points="439.4,75.2 442.3,75.2 443.6,73 437,70.3 437.2,75.7 438.5,76.5 "/>
<polygon class="st0" points="431.3,87.7 430.8,89.3 437.2,88.4 437.8,90.9 439.2,90.3 439.4,88.3 443.7,87.2 443.5,81.5 441.5,78.1 
	439.6,77.5 440.7,82.7 436.7,86.3 "/>
<polygon class="st0" points="430.1,90.9 432.5,90.6 433.2,91.7 432.4,94.4 "/>
<polygon class="st0" points="436.4,89.8 435.2,91.8 433.7,90.2 "/>
<polygon class="st0" points="429.3,124.8 425.7,124.5 424.4,122.9 425.7,119.9 424.5,117.1 422.1,117 421.5,122 424.9,126 
	428.7,126.5 "/>
<polygon class="st0" points="418.1,133.7 419.7,134 422.5,131.7 422.4,129.8 "/>
<polygon class="st0" points="430.4,137.3 430.4,139.5 432.7,138.8 431.9,137.4 433.8,136.9 432.2,131.9 431,135 427.1,135 "/>
<polygon class="st0" points="423.5,126.2 425.1,127.8 424.6,128.8 423.3,127.5 "/>
<polygon class="st0" points="425.1,130.2 426.3,131 427.6,129 425.9,128.8 "/>
<polygon class="st0" points="429.5,128.1 431.2,130.2 432.9,130.2 431.2,127.5 "/>
<polygon class="st0" points="429.5,129.9 430.5,131.5 429.7,132.4 428.4,130.5 "/>
<polygon class="st0" points="427.6,131.5 428.4,132.7 427.6,133.7 426.7,132.6 "/>
<polygon class="st0" points="430.8,164.2 431.9,165.7 434.9,165.4 434.9,164.2 "/>
<polygon class="st0" points="406.2,146.6 406.3,150.9 408.8,155.2 416.6,155.2 420.5,150.3 420.5,141.3 417.7,141.6 415.4,145.9 
	407.8,147.6 "/>
<polygon class="st0" points="400.6,157.9 400.6,154.6 387.7,141.2 383.3,139.5 398.2,159.9 "/>
<polygon class="st0" points="415.7,163.8 415.9,164.9 399.8,162.2 402.2,160.2 406.2,161.7 409.9,160.9 "/>
<polygon class="st0" points="426,163.8 423.5,163.8 424,165.4 426.3,165.4 427.3,164.6 "/>
<polygon class="st0" points="421.6,166.4 422.4,167.3 424.1,167.3 423.5,166 "/>
<polygon class="st0" points="430.8,164.2 428.3,167 430.2,167.3 431.9,165.7 "/>
<polygon class="st0" points="422.5,159.3 424.3,158.8 423.8,155.5 424.9,154.3 425.8,156.7 428,157.5 428,155.7 426.7,153 
	429.1,151 425.3,151.1 424.6,150.1 426.1,148.4 428.8,149.4 430.2,149.3 432.2,146.8 430.5,146.8 429.3,147.6 425.4,146.6 
	422.9,148.9 423,152.6 421.5,154.6 "/>
<polygon class="st0" points="436.4,154.1 435.9,155.6 440.1,155.2 440.1,154.1 "/>
<polygon class="st0" points="437.3,144.4 435.9,145.8 435.4,149.2 437.3,149.7 436.9,146.6 438,145.2 "/>
<polygon class="st0" points="446.8,153.5 446.3,150.6 441.7,151.2 "/>
<polygon class="st0" points="446.5,156 452.9,158.7 454.1,162 451.9,163.3 457.4,165.2 457.4,154.4 453,152 448.8,155.4 
	444.4,153.7 443.9,156.1 "/>
<polygon class="st0" points="427.5,84.8 423.1,81.3 421.2,83.1 423.8,88.7 426.9,88.4 "/>
<polygon class="st0" points="423.1,81.3 421.2,79.7 423.7,79.4 423.3,74.5 416.9,78.9 418.8,82.4 421.2,83.1 "/>
<polygon class="st0" points="417.6,138.3 414.2,142.9 406.2,146.6 407.9,147.6 415.4,145.9 417.7,141.6 420.5,141.3 420.5,138 "/>
<polygon class="st0" points="391.3,138.3 392.7,142.8 398.3,147.6 398.8,145.9 393.4,138 "/>
<polygon class="st0" points="459.4,165.9 463.2,162.4 468.1,167.2 472.7,168.1 467.1,162.5 467.4,159.6 457.4,154.4 457.4,165.2 "/>
<polygon class="st0" points="469.9,160.1 471.9,161.3 475.3,159.3 475.3,157.3 "/>
<polygon class="st0" points="472.7,154.4 476.7,157.3 478.3,156.8 474.2,154.3 "/>
<polygon class="st0" points="388.4,111.6 384,104.3 385.1,101.3 382.6,100.2 379.2,102.6 377.6,113.6 380.2,115.7 381.1,120.7 
	382.9,121.3 384.2,119.7 386.5,122.3 387.8,127.2 387.5,132.2 389.5,128.2 385.9,115.1 388.4,113.3 "/>
<polygon class="st0" points="395.7,117.8 398.6,121.7 395.9,124.5 402,124.5 402,122.9 396,116.6 394.7,112.5 390.6,110.5 
	388.4,111.6 388.4,113.3 390.5,114.5 390.5,117.8 "/>
<polygon class="st0" points="390.5,117.8 390.5,114.5 388.4,113.3 385.9,115.1 389.5,128.2 387.5,132.2 387.4,134.2 390.9,137.2 
	391.3,138.3 393.4,138 390,132.9 390.8,125.1 394.6,128.9 394.6,125.7 398.6,121.7 395.7,117.8 "/>
<polygon class="st0" points="394.6,125.7 394.6,128.9 396.6,130.8 398.7,130.5 402,128.1 402,124.5 395.9,124.5 "/>
<polygon class="st0" points="396,116.6 402,122.9 402,128.1 398.7,130.5 398.8,134 405,129.9 404.8,123.8 398.3,117 398.7,113.3 
	401,112 396,107.7 390.6,110.5 394.7,112.5 "/>
<polygon class="st0" points="370.2,103.4 368.9,104 370.8,110.1 372.1,108.9 377.6,113.6 378,111.1 375.1,108.4 374.6,105.1 
	372.3,106 "/>
<polygon class="st0" points="372.3,102.9 368.9,102.1 369.3,100 368.4,99.6 366.3,102.9 354.9,98.6 355,95 352.1,94 351.8,87.6 
	349.3,86.5 347,86.5 343.6,88.9 343.5,90.9 345.6,92.1 346.6,96.1 342.1,100.2 339.3,100.2 339.3,103.3 341.4,104.1 341.4,106.7 
	337.5,107.7 337.9,108.1 341.1,109.1 339.6,110.7 341,112.5 343.5,112.8 344,110.7 345,110.7 353.1,134.1 358.3,130.9 359.1,121.5 
	370.8,110.1 368.9,104 370.2,103.4 372.3,106 374.6,105.1 375.1,108.4 378,111.1 379.2,102.6 382.6,100.2 376.9,97.7 373.1,101.3 
	"/>
<polygon class="st0" points="355,95 354.9,98.6 366.3,102.9 368.4,99.6 "/>
<polygon class="st0" points="369.3,100 368.9,102.1 372.3,102.9 373.1,101.3 "/>
<polygon class="st0" points="304.9,72.8 307.3,74.8 310.4,74 313.1,76.2 312.7,70.3 316.9,69.4 322.4,73.2 327,72.3 330.4,76.7 
	333.6,76.6 336.8,74 344.4,73.6 349.2,75.9 347.9,70.1 355.4,64.3 351.1,61.8 325.9,52.9 315.9,55.2 315.9,59.6 298.3,59.6 
	298.3,65.5 300.6,68.4 305.7,66.4 308.7,68.4 305.1,70.2 "/>
<polygon class="st0" points="324.3,86.7 322.6,84 316,81.9 312.1,83.2 312,84.9 307,84.9 304.3,80.1 297.7,80.7 297.7,82.6 
	305.7,96.1 308,96.4 313.5,102.1 323.6,105.1 326.4,105.1 328.4,101.6 326.2,98.8 323,89.4 "/>
<polygon class="st0" points="313.1,76.2 310.4,74 307.3,74.8 312.2,78.9 312.1,83.2 316,81.9 322.6,84 324.3,86.7 330.5,83.5 
	320.2,75.2 315.8,75.2 "/>
<polygon class="st0" points="339.3,100.2 342.1,100.2 346.6,96.1 345.6,92.1 343.5,90.9 343.6,88.9 347,86.4 349.3,86.4 344.6,84.3 
	339.5,85 337.9,92 332,97.4 325.7,97.3 326.2,98.8 328.5,101.6 326.4,105.1 335.2,105.1 337.5,107.7 341.4,106.7 341.4,104.1 
	339.3,103.3 "/>
<polygon class="st0" points="322.4,73.2 316.9,69.4 312.7,70.3 313.1,76.2 315.8,75.2 320.2,75.2 330.6,83.5 333.9,84.4 332.4,79.8 
	337.2,78.5 337.5,76.4 330.4,76.7 327,72.3 "/>
<polygon class="st0" points="324.3,86.7 323,89.4 325.7,97.3 332,97.4 337.9,92 339.5,85 338.4,82.1 333.9,84.4 330.5,83.5 "/>
<polygon class="st0" points="338,80.7 334,79.4 332.4,79.9 333.9,84.4 338.4,82.1 339.5,85 344.6,84.3 343.8,83.9 342.3,80.3 "/>
<polygon class="st0" points="336.8,74 333.6,76.6 337.5,76.4 337.2,78.5 334,79.4 338,80.7 342.3,80.3 341.7,78.7 349.2,75.9 
	344.4,73.6 "/>
<polygon class="st0" points="298.3,77.7 301.2,80.4 304.3,80.1 302.1,76.2 299.8,75.6 "/>
<polygon class="st0" points="292.1,76.7 296.4,77.7 298.3,77.7 299.8,75.6 294.3,73.2 292.1,73.6 "/>
<polygon class="st0" points="297.7,80.7 301.2,80.4 298.3,77.7 296.4,77.7 "/>
<polygon class="st0" points="265.2,48 264.1,48.2 264.4,48.4 264,49.9 260.9,48.4 260.9,50.3 265.2,51.4 268.3,52.9 269.5,51.8 
	269.1,48.8 267.5,49.2 "/>
<polygon class="st0" points="260.9,52.5 263.3,53.3 264,54.6 264.5,56.1 268.3,52.9 265.2,51.4 260.9,50.3 "/>
<polygon class="st0" points="273.1,51.8 269.5,51.8 264.5,56.1 265.3,58.3 272.5,59.5 277,58.5 274.3,57.4 275.9,56.4 "/>
<polygon class="st0" points="263.1,46.2 262.7,47.2 264.1,48.2 265.2,48 267.5,49.2 269.1,48.8 268.6,45.3 267.7,46.1 "/>
<polygon class="st0" points="272.5,59.5 265.3,58.3 265.7,59.6 263.1,62.8 263.1,64.6 272.9,64.6 273.8,66.4 272.1,69 273.6,69.6 
	274,68.4 279.8,68.4 278.5,69.7 280.3,70.8 282.7,70.6 280.4,67.7 286.4,66.4 288,62.9 277,58.5 "/>
<polygon class="st0" points="258.7,31.3 248.6,38.7 248.6,45.3 247.3,47.5 251.1,51.8 257.3,46.4 254.4,42.8 260.9,35.6 262.2,35.6 
	260.4,31.3 "/>
<polygon class="st0" points="240.9,48 246.8,47 247.3,47.5 248.6,45.3 248.6,38.7 258.8,31.3 264.3,31.3 264.3,29.5 258.6,29.7 
	239,43.3 "/>
<polygon class="st0" points="264.3,31.3 260.4,31.3 262.2,35.6 263.2,35.6 260.1,42.7 263.7,44.6 269.3,44.6 272.5,41 267.3,29.3 
	264.3,29.4 "/>
<polygon class="st0" points="433.7,63.7 435.7,63.7 428.9,56.7 426.9,56.7 432.4,63.4 435.1,68.4 437.1,68.4 "/>
<polygon class="st0" points="263.2,53.3 260.8,52.5 260.8,54.1 263.9,54.7 "/>
<polygon class="st0" points="407.3,29.2 405.5,26.6 394.1,24.8 390.8,27.7 381.6,27.7 377.7,24.8 356.8,24.8 355.5,20.2 336.2,20.2 
	319.1,27.8 322.8,32.4 319.6,35.7 316.7,26.2 311.6,25.8 314,31.4 294.2,32 275.6,39.6 273.2,34.9 280.2,35.2 283.7,33.5 
	270.1,29.2 267.2,29.3 272.5,41 269.3,44.6 268.6,45.3 269,48.8 269.5,51.8 273.1,51.8 275.9,56.4 274.3,57.4 277,58.5 287.9,62.9 
	286.4,66.4 287.1,68.1 285.3,68.6 285.7,71.4 292.1,73.7 294.3,73.2 299.7,75.6 302.1,76.2 300.6,73.7 300.6,68.4 298.3,65.5 
	298.3,59.7 315.9,59.7 315.9,55.2 325.8,52.9 351.1,61.8 355.4,64.4 360.7,60.3 367.9,62.5 369.8,58.1 387.4,62.5 396,62.5 
	399.2,61.8 397.5,55.8 405,55.8 412.7,63.3 423.2,66 423.2,74.5 427.8,73.7 430.3,70 430.3,63.1 423.2,55.1 416.4,55 417.5,46.5 
	431.7,46.6 433.3,41.8 439.2,44 439.3,41.8 440.7,42 443.3,44.4 440.8,46.1 440.5,51.2 450.6,60.7 450.6,51.5 444.9,46 458.4,41.8 
	458.6,40.4 451.8,38.5 454.4,36.5 460.5,37.7 464.6,37.8 461.3,34.3 440.1,30.1 "/>
<polygon class="st0" points="256.2,65.1 253.8,67.1 257.4,68.5 261.2,67.8 264.3,64.6 263.1,64.6 263.1,63.8 "/>
<polygon class="st0" points="254.4,63.3 256.2,65.1 263.1,63.8 263.1,62.8 256.9,62 256.6,61.9 "/>
<polygon class="st0" points="241.3,68.3 243.6,68.5 245.6,68 244.8,65.8 243,65.8 241.7,66.4 "/>
<polygon class="st0" points="249.8,63.3 254.4,63.3 256.6,61.9 252.3,60.2 248.4,61.4 "/>
<polygon class="st0" points="219.2,84.3 220.1,84.4 221.1,75.6 217.8,75.1 217.6,81.5 "/>
<polygon class="st0" points="272.1,69 273.8,66.4 272.8,64.6 269.9,64.6 "/>
<polygon class="st0" points="263.9,54.6 260.8,54.1 257.6,54.2 256.9,53.5 252.3,54.6 251.9,54.6 252.3,60.2 256.6,61.9 256.9,62 
	263.1,62.8 265.7,59.6 265.2,58.3 264.4,56.1 "/>
<polygon class="st0" points="264.3,64.6 261.2,67.8 264,72.4 270.8,71.6 272.8,72.1 273.6,69.6 272.1,69 269.9,64.6 "/>
<polygon class="st0" points="251.8,54.6 245.9,54.6 245.6,53.5 243.6,53.5 244,54.5 240.9,56.4 240.6,61.8 242.5,62.8 241.7,66.4 
	243,65.8 247.4,65.8 247.7,65.7 250.9,64.8 249.8,63.3 248.4,61.4 252.3,60.2 "/>
<polygon class="st0" points="243.6,53.5 245.6,53.5 245.5,53.1 246.2,49.3 244.3,49.2 243,52.2 "/>
<polygon class="st0" points="249.1,52.2 247.9,51 246.9,51.4 246.6,53.1 248.5,53.1 "/>
<polygon class="st0" points="250.9,64.8 247.4,65.8 244.8,65.8 245.6,68 249.4,67.1 253.8,67.1 255.6,65.6 256.2,65.1 254.4,63.3 
	249.8,63.3 "/>
<polygon class="st0" points="253.1,82.2 249.2,82.2 249.2,83.1 250.7,84.1 253.1,84.5 "/>
<polygon class="st0" points="243,76.7 243,80.7 244.8,80.7 244.8,77.3 "/>
<polygon class="st0" points="241.3,68.3 241,70 243.2,71 245.8,71 253.8,79 254.2,82.4 255.7,81.6 256.2,79.1 258,78.8 248.2,70.3 
	251,70.1 249.4,67.1 243.6,68.5 "/>
<polygon class="st0" points="243.9,74 243.9,75.6 244.8,76 245.2,74 "/>
<polygon class="st0" points="225.4,64 225.4,65.1 228.7,66.9 229.2,72.8 234.1,76 235.6,74 242.8,74 243,71 243.2,71 241,70 
	242.5,62.8 235.9,59.4 228.2,64 "/>
<polygon class="st0" points="237.8,58.3 235.9,59.4 239.6,61.3 240.6,60.7 240.7,59.8 "/>
<polygon class="st0" points="240.7,59.8 240.9,56.4 237.8,58.3 "/>
<polygon class="st0" points="239.6,61.3 240.6,61.8 240.6,60.7 "/>
<polygon class="st0" points="227.6,52.9 227.6,55.4 225.9,56.3 227.4,58.5 224.4,61.3 228.4,60.6 232.4,60 232.7,58.5 233.5,58.5 
	233.7,56.8 231.1,56.2 227.8,48.7 225.3,48.6 225.3,52.7 "/>
<polygon class="st0" points="224.4,54.7 224.4,53.1 221.5,52.9 223.1,55.1 "/>
<polygon class="st0" points="218.5,55.1 218.5,59.5 220.2,59.4 220.2,57.9 223.4,58.4 223.1,55.1 221.5,52.9 "/>
<polygon class="st0" points="220.1,84.4 227.1,84.9 234.1,76 229.2,72.8 217.8,72.9 217.8,75.1 221.1,75.6 "/>
<polygon class="st0" points="235.7,80.6 235.7,78.7 233.5,80.6 "/>
<polygon class="st0" points="261.5,78.4 265.9,77 264.9,74.6 261.2,75.3 "/>
<polygon class="st0" points="258.6,68.3 259.5,72.8 261.2,75.3 264.9,74.6 264,72.4 261.2,67.8 "/>
<polygon class="st0" points="251,70.1 251.4,70.1 253.5,69 254.5,67.4 253.8,67.1 249.4,67.1 "/>
<polygon class="st0" points="273.3,79 270,79 272.7,84.5 285.3,85.2 297.7,82.6 297.7,80.7 296.3,77.7 292,76.7 274.8,77.2 "/>
<polygon class="st0" points="270,77.7 273,77.7 271.8,75.1 270,75.7 "/>
<polygon class="st0" points="256.2,74.2 257.3,74.4 259.5,72.8 258.9,69.5 254.3,70.1 "/>
<polygon class="st0" points="259.8,78.9 261.2,80.6 264,81.4 262.3,82.1 264.5,84.8 265.9,82.6 264.4,79.3 267.4,77.7 270,77.7 
	269.9,75.7 "/>
<polygon class="st0" points="257.4,68.5 254.5,67.4 253.5,69 251.4,70.1 252.1,70.1 255.5,74 256.2,74.2 254.3,70.1 258.9,69.5 
	258.6,68.3 "/>
<polygon class="st0" points="258.7,74.8 260.3,73.9 259.5,72.8 257.3,74.4 259.6,78.7 259.8,79 261.5,78.4 261.2,75.3 260.3,73.9 
	"/>
<polygon class="st0" points="265.9,77 271.8,75.1 272.8,72.1 270.8,71.6 264,72.4 "/>
<polygon class="st0" points="309.7,105.1 311,106 311.9,105.1 310.4,102.9 "/>
<polygon class="st0" points="282.5,86.6 279,87.9 281.5,88.6 "/>
<polygon class="st0" points="284.9,91.2 284.9,97.6 286.2,97.8 288.2,96.8 288.8,93.2 290.4,92.6 290.5,92.5 290,90.6 286.8,92.5 
	"/>
<polygon class="st0" points="309.2,104.8 305.7,99 304.1,99 303,97.6 300,97.6 290.4,92.6 288.8,93.2 288.2,96.8 286.2,97.8 
	284.9,97.6 297.4,119.4 297.6,120.2 298.9,117.9 303.4,118.5 303,120.2 309.2,116.9 318.1,114.5 318.1,109.9 313.5,109.3 
	312.1,106.7 "/>
<polygon class="st0" points="301.6,97.6 303,97.6 304.1,99 305.7,99 303.8,96 302,96 "/>
<polygon class="st0" points="292.6,89 290,90.6 290.5,92.6 300,97.6 301.6,97.6 302,96 305.5,95.9 297.7,82.7 294.1,83.4 "/>
<polygon class="st0" points="315.4,107.4 312.1,106.7 313.5,109.3 316.1,109.6 319.8,105.9 318.1,104.4 "/>
<polygon class="st0" points="316.1,109.6 318.1,109.9 318.1,114.5 313.6,115.7 313.6,118.4 316.1,120.1 324.3,109.9 319.8,105.9 "/>
<polygon class="st0" points="286.3,88.5 284.9,91.2 286.8,92.5 292.7,89 294.1,83.4 285.3,85.2 284.7,87.9 "/>
<polygon class="st0" points="309.2,116.9 303,120.2 303.4,118.5 298.9,117.9 297.6,120.2 299.8,127.4 316.1,120.1 313.6,118.4 
	313.6,115.7 "/>
<polygon class="st0" points="284.9,91.2 286.3,88.5 284.7,87.9 284.2,90.7 "/>
<polygon class="st0" points="284.8,97.7 284.9,97.6 284.9,91.2 284.2,90.7 283,94.8 "/>
<polygon class="st0" points="298.2,189.9 299.9,193.9 304,194.1 310.9,171.8 308.4,171.8 300.4,180.2 299.6,186 "/>
<polygon class="st0" points="253.5,135.3 252.3,131.8 254.6,131.8 251.7,125.6 251.7,129 247.6,137.7 243.9,137.9 243.4,141.4 
	245,141.4 244.9,145.1 255,145.1 255.4,143.8 255.4,143.8 252.4,139.5 "/>
<polygon class="st0" points="247.7,147.7 244.8,147.7 244.7,152.1 248.4,156.9 248.4,152.8 253,152.8 250.7,145.1 247.7,145.1 
	247.7,145.1 244.9,145.1 244.8,147.7 "/>
<polygon class="st0" points="238.2,138.6 238.9,141.4 243.4,141.4 243.9,137.9 247.5,137.7 251.7,129 251.7,125.6 236.1,125.6 
	233.5,137.9 "/>
<polygon class="st0" points="215.1,136.2 216.3,137.5 216.3,142.9 224.8,140.4 224.8,132.5 216.5,130.9 216.5,135 "/>
<polygon class="st0" points="216.3,142.9 216.3,137.5 213.2,134 210.5,136.6 "/>
<polygon class="st0" points="267.6,167.9 264.6,166.5 264.6,161.1 261.3,161.1 260.6,163.5 257.3,163.6 256.5,160.6 251.2,160.7 
	251.2,172.4 248.2,177.3 248.5,180.6 267,180.6 264,176.8 264,172.6 267.7,172.6 "/>
<polygon class="st0" points="230.6,138.8 229.2,130.3 224.8,130.3 224.8,140.4 "/>
<polygon class="st0" points="250.6,145.1 253,152.8 248.4,152.8 248.4,156.9 250.2,159.3 254.6,157.3 259.3,149.6 260,143.8 
	255.4,143.8 255,145.1 "/>
<polygon class="st0" points="294,123.8 296.8,128.1 297.8,127.3 290.9,115.3 287.3,123.8 "/>
<polygon class="st0" points="210.5,136.6 213.2,134 210.4,130.9 207.7,133.6 "/>
<polygon class="st0" points="297.5,131 299.3,129.7 297.8,127.3 295.8,129 "/>
<polygon class="st0" points="284.6,170 284.6,172.6 286.8,174.1 286.8,177.3 284.7,179.2 284.7,175.5 282.5,173.7 282.5,173.7 
	278.4,176.6 282.5,179.2 282.5,182.9 279.9,188.9 279.9,195.5 281.8,195.4 281.9,194.5 285.7,191.9 285.4,183.9 294.4,176.5 
	293.5,168.2 "/>
<polygon class="st0" points="299.3,129.7 297.5,131 299.3,133 306.4,135.5 295.3,144.7 295.3,152.7 312.7,132.5 312,129 
	299.9,130.8 "/>
<polygon class="st0" points="255.1,199.2 261.7,199.2 261.7,182.2 270.6,182.2 269.4,180.6 248.5,180.6 "/>
<polygon class="st0" points="288,140.9 285,141.3 285.9,145.1 285.4,148.2 284.1,150.6 292.4,156.1 295.3,152.7 295.3,144.7 
	298.6,142 289.1,142 "/>
<polygon class="st0" points="284.1,150.6 283.6,151.6 280.6,151.6 281.4,150.2 280,150.2 276.9,157.8 282.5,165.6 284.6,165.6 
	284.6,170 293.5,168.2 292.4,156.1 "/>
<polygon class="st0" points="216,103.1 211,103.1 211,108.8 209.2,111.6 203.1,111.6 202.9,117.9 210.4,123.3 210.4,121.4 
	219.4,121.4 218.6,106 223.3,106 216,100.6 "/>
<polygon class="st0" points="278.8,153.3 280,150.2 277.3,150.2 276.5,153.8 "/>
<polygon class="st0" points="276.9,157.8 278.8,153.3 276.5,153.8 275.9,156.4 "/>
<polygon class="st0" points="204.8,130.5 207.7,133.6 210.4,130.9 213.2,134 215.1,136.2 216.5,135 216.5,130.9 215.8,128 
	207.2,128 "/>
<polygon class="st0" points="219.4,121.4 210.4,121.4 210.4,123.3 212.4,128 215.8,128 216.5,130.9 220.6,131.7 220.6,127.6 
	236.6,121.1 236.6,115.8 223.3,106 218.6,106 "/>
<polygon class="st0" points="274.9,169.1 278.1,170.4 277,172.6 267.6,167.9 267.7,172.6 264,172.6 264,176.8 267,180.6 
	272.7,180.6 282.5,173.7 282.5,165.6 281.3,163.9 275.9,164.7 "/>
<polygon class="st0" points="261.7,193.1 264.4,196.2 275.3,188.9 270.6,182.2 261.7,182.2 "/>
<polygon class="st0" points="220.6,131.7 224.8,132.5 224.8,130.3 229.2,130.3 234.3,128.4 229.4,124 220.6,127.6 "/>
<polygon class="st0" points="282.5,165.6 282.5,173.7 282.5,173.7 284.7,175.5 284.7,179.2 286.8,177.3 286.8,174.1 284.6,172.6 
	284.6,165.6 "/>
<polygon class="st0" points="296.8,128.1 294,123.8 287.3,123.8 282.5,135.1 289.1,142 298.5,142 306.4,135.5 299.3,133 295.8,129 
	"/>
<polygon class="st0" points="277.3,150.2 281.3,150.2 282.5,148.2 285.4,148.2 285.9,145.1 285,141.3 279.3,142.1 "/>
<polygon class="st0" points="236.6,115.8 236.6,121.1 229.4,124 234.3,128.4 235.6,128 236.1,125.6 251.7,125.6 255.3,118.3 
	253.9,108.8 246.9,108.8 "/>
<polygon class="st0" points="203.1,111.6 209.2,111.6 211,108.8 211,103.1 216,103.1 216,99.7 210.5,99.7 203.2,109.3 "/>
<polygon class="st0" points="202.7,124.1 207.6,125.6 202.6,125.6 202.5,128 212.4,128 210.4,123.3 202.9,117.9 "/>
<polygon class="st0" points="207.6,125.6 202.7,124.1 202.6,125.6 "/>
<polygon class="st0" points="255.2,118.3 251.7,125.6 254.6,131.8 252.3,131.8 253.5,135.3 265.1,129.7 265.1,123.7 267.7,121.2 
	268,115.3 257.9,108.8 253.9,108.8 "/>
<polygon class="st0" points="255.3,94.7 253.1,92.1 248.6,91 244.3,95.6 247.1,108.8 257.9,108.8 268,115.3 269,92.9 263.1,92.1 
	260.6,95.7 "/>
<polygon class="st0" points="215.1,99.7 216,99.7 216,99 228.2,92.3 228.2,87.5 219.2,88.4 210.5,99.7 "/>
<polygon class="st0" points="228.2,87.5 228.2,92.3 216,99 216,100.6 236.6,115.8 246.9,108.8 247.1,108.8 242.1,84.6 236.1,84.5 
	"/>
<polygon class="st0" points="242.1,84.6 244.3,95.6 248.6,91 246.9,90.6 247.1,84.8 "/>
<polygon class="st0" points="269.4,180.6 275.3,188.9 279.9,188.9 282.5,182.9 282.5,179.2 278.4,176.6 272.7,180.6 "/>
<polygon class="st0" points="272.1,203.2 274.5,203.2 275.9,201.8 275.9,199.9 274,199.9 272.1,201.1 "/>
<polygon class="st0" points="279.9,194.9 278.1,194.9 278.1,196.5 279.9,197.6 "/>
<polygon class="st0" points="284.8,97.8 284.8,97.7 283,94.8 269,92.9 268.2,109.9 283.6,109.9 286.7,108.1 280.3,97.2 283.8,100 
	"/>
<polygon class="st0" points="286.7,108.1 283.6,109.9 268.2,109.9 267.7,121.2 265.1,123.7 265.1,129.7 274.3,140.3 279.3,142.1 
	288,140.9 282.5,135.1 287.3,123.8 290.9,115.3 "/>
<polygon class="st0" points="275.9,156.4 279.3,142.1 274.4,140.3 260.4,140.7 259.3,149.6 254.6,157.3 250.2,159.3 251.2,160.7 
	256.5,160.6 257.3,163.6 260.6,163.5 261.3,161.1 264.6,161.1 264.6,166.5 277,172.6 278.1,170.4 274.9,169.1 275.9,164.7 
	281.3,163.9 "/>
<polygon class="st0" points="252.4,139.5 255.4,143.8 260,143.8 260.4,140.7 274.4,140.3 265.1,129.7 253.5,135.3 "/>
<polygon class="st0" points="235.6,128 231.2,129.6 232.7,138.2 233.5,137.9 "/>
<polygon class="st0" points="231.2,129.6 229.2,130.3 230.6,138.8 232.7,138.2 "/>
<polygon class="st0" points="204.8,130.5 207.2,128 202.5,128 202.5,128.1 "/>
<polygon class="st0" points="68.5,30.2 64.8,28.7 45.7,28.8 38,31.9 38,35.4 29.3,35.3 27.7,37.6 35,37.3 25.6,40.8 21,47 24.9,47 
	17.4,51.9 20.1,52.1 34.5,45.2 51.1,44.7 56.2,49.7 58.1,47.7 56.4,45.9 54.6,45.9 52.7,43.8 "/>
<polygon class="st0" points="56,62.2 53.4,60 52.3,61 54.1,63.4 56,63.4 "/>
<polygon class="st0" points="156.8,65.5 154.8,62.4 153.1,61.9 153.1,59.7 147.3,65.5 "/>
<polygon class="st0" points="153.8,29.2 142.3,24.5 140.6,24.4 136.5,27.7 137.9,24.4 135.9,24.4 131.3,29.4 142.6,28.8 149.6,35 
	144.9,34.9 142.5,36.8 137.2,36.8 137.2,38.3 142.6,38.3 147.2,42.1 148.4,41.5 147.3,39.1 150.5,40.6 151.5,40.2 151.5,35.5 
	155.1,36.8 157.2,35.4 156,33.2 153.9,32.5 "/>
<polygon class="st0" points="114.9,71.3 118.3,71.3 120.6,69.7 128.1,69.7 131.3,66.9 134.2,66.9 133.1,70.2 138.3,69.3 134.9,71 
	135.2,72.3 144.4,69.1 139.9,68.9 137.8,67 139.9,63.8 138.9,62.9 132.4,65.8 132.4,64.1 138.6,61.1 148.6,60.7 156,56.7 
	156.1,54.9 150.6,54 150,45 142.8,47.9 142.9,43.7 139.4,40.7 134.8,40.7 122.1,59.1 119.1,59.1 119.1,53.1 108.3,47.2 119.1,39.1 
	125.3,38 124,36.1 133.5,35 137.4,31 133.8,30.6 128.8,33.9 129.3,31.1 127,30.9 126.4,27.4 122.4,29.2 123.5,31.4 118.1,34 
	108.6,32.2 103.7,34.6 91.6,29.7 68.5,30.2 52.7,43.8 54.5,45.9 56.4,45.9 58,47.7 56.1,49.7 54.2,58.6 57.7,61.7 57.7,63.4 
	96.5,63.4 101.1,65.5 108.8,63.8 109.7,67.3 111.3,68.4 113.9,68.2 "/>
<polygon class="st0" points="128.9,36.8 125.9,39.2 131.8,39.8 132.4,38.3 "/>
<polygon class="st0" points="117.5,30.7 118.6,32.1 121.3,30.7 120.5,29.4 "/>
<polygon class="st0" points="119.6,26 121.3,27.7 125.1,26.5 126.1,23.8 "/>
<polygon class="st0" points="126.8,24.9 127.2,26.6 132.4,25.2 131.4,23.8 "/>
<polygon class="st0" points="139.9,21.4 137.1,20.2 134.3,22.6 145.4,23.4 148.3,21.4 "/>
<polygon class="st0" points="166.9,15.1 172.7,11.9 149.7,13.6 149.7,14.8 157.5,14.7 156.4,16.1 148.3,16.3 149.4,18.1 145.9,17.6 
	147.3,19.3 141.3,19.3 142.2,20.2 148.7,20.2 149.8,21.1 159.3,16.7 "/>
<polygon class="st0" points="138.8,16.5 143.1,17.3 145.5,15.7 143.7,14.4 "/>
<polygon class="st0" points="93.5,27.7 103.5,24.3 101.2,23.2 91.7,25.7 "/>
<polygon class="st0" points="104.8,24.9 99.4,26.8 102.6,28.1 97.6,29.4 103.8,31.8 108.1,30 112.8,31.1 116.4,30.3 112.9,28.7 
	115.6,25.2 112.9,25.2 111.3,27.3 110.7,25.2 107.8,26.3 "/>
<polygon class="st0" points="97,109.8 101.9,109.8 105.9,112.4 104.4,114.1 111.3,114.1 103,108.2 98.7,108.2 "/>
<polygon class="st0" points="103.9,117.2 104.9,118.1 107.9,118.1 107.9,117 106.9,116 103.9,116 "/>
<polygon class="st0" points="122.2,116.4 121.6,117.4 123.3,117.4 123.9,116.4 "/>
<polygon class="st0" points="85.5,120.7 82.6,120.7 81.3,123.1 85.3,125.1 88,120.2 87.5,117.6 85,117.6 "/>
<polygon class="st0" points="88.6,124.6 88.1,126.3 88.8,126.7 95.5,121.1 87.5,121.2 86.1,123.5 "/>
<polygon class="st0" points="88.1,126.3 88.6,124.6 86.1,123.5 85.3,125.1 "/>
<polygon class="st0" points="90.6,115.2 87.5,117.6 88,120.2 "/>
<polygon class="st0" points="91.4,130.1 95.7,130.5 95.5,121.1 88.8,126.7 "/>
<polygon class="st1" points="98.4,156.4 101.9,158.1 108.3,150.3 101.8,146.7 98.7,150.5 "/>
<polygon class="st1" points="111.4,128.9 109.7,128.9 106.1,133.7 104.3,133.8 104.8,135.6 103.8,137 104.6,139.4 103.9,144 
	101.8,146.7 116.6,155.1 116.6,145.6 120,145.4 120,137.9 114.4,137.3 111.9,134.6 "/>
<polygon class="st1" points="134.9,243.7 137.1,245.7 143.8,246 136.5,242.1 "/>
<polygon class="st1" points="145.3,194.9 142.3,196.7 138.3,196.7 138.3,193.2 130.2,187.7 129.8,188.5 123,188.5 121.2,205.4 
	125,222.2 128.4,228.3 128.6,233 133.7,240.8 135.6,241 134.6,220.9 145.5,216.2 140.6,209.3 140.6,201.7 145.4,196.8 "/>
<polygon class="st1" points="146.5,211.5 148.8,207.4 140.6,201.7 140.6,209.3 "/>
<polygon class="st1" points="123.5,131.6 119.9,129 111.4,128.9 111.9,134.6 114.4,137.3 120,137.9 120,145.4 120.9,145.3 
	122,147.9 125.7,146.7 125.4,142.7 130.3,140.9 131.7,133.8 130.1,132.2 "/>
<polygon class="st0" points="91.4,130.1 94.3,134 95.3,134.4 96.8,132.5 95.7,131.9 95.7,130.5 "/>
<polygon class="st1" points="136.8,138.6 131.7,133.8 130.3,140.9 132.4,140.2 132.1,146.3 137,145.7 135.3,141.4 "/>
<polygon class="st1" points="124.2,168.1 119.2,169.5 119.2,181 123,188.5 129.7,188.5 132.4,183.7 137.5,183.7 137.4,179.8 
	128.7,172.7 "/>
<polygon class="st1" points="141.4,145.2 144.7,144.9 145.6,142.1 144.4,139.3 141.6,139.1 "/>
<polygon class="st1" points="137.5,183.7 132.4,183.7 130.2,187.7 138.3,193.2 138.3,196.7 142.3,196.7 145.3,194.9 145.1,192.1 
	137.6,188.2 "/>
<polygon class="st1" points="137,145.7 141.4,145.2 141.6,139.1 136.8,138.6 135.3,141.4 "/>
<polygon class="st1" points="157.6,151.9 153.8,150.2 150.1,152.4 151.3,149.2 148.9,148.1 145.3,150.8 147.9,147 145.6,142.1 
	144.7,144.9 132.1,146.3 132.4,140.2 130.3,140.9 125.4,142.7 125.7,146.7 122,147.9 120.9,145.3 116.5,145.6 116.5,156.8 
	112.1,157.3 110.2,163.7 117.6,170 124.2,168.1 128.7,172.7 137.4,179.8 137.6,188.2 145.1,192.1 145.4,196.8 140.6,201.7 
	148.8,207.4 153.6,199 154.8,191.7 166.4,186.6 168.6,170.5 173.6,163.9 173.6,159.9 165.4,154.5 157.3,154.1 "/>
<polygon class="st0" points="99.9,132.3 98.6,133.5 96.8,132.5 95.3,134.4 99.6,135.9 100.7,134.3 103.1,134.6 103.8,137 
	104.8,135.6 104.4,134 103.8,132 "/>
<polygon class="st1" points="112.1,157.3 116.5,156.8 116.5,155.1 108.2,150.3 101.9,158.1 98.4,156.4 98.2,158.2 109,176.6 
	118.4,182.9 119.2,181 119.2,169.5 117.6,170 110.2,163.7 "/>
<polygon class="st1" points="125,222.2 121.1,205.4 123,188.5 119.2,181 118.4,182.9 119.9,221.1 124.1,224.5 124.3,231.3 
	131.4,240.6 133.7,240.8 128.6,233 128.4,228.3 "/>
<polygon class="st0" points="120,115 115.1,114.4 115.1,117.1 116.7,115.9 119.3,115.9 "/>
<polygon class="st0" points="115.1,116.5 115.1,114.4 112.1,114.4 113.1,115.8 111.3,115.8 111.3,116.5 "/>
<path class="st0" d="M481.4,220l-1,3.2l7.3-5.2l-2.1-2.8V212l-1.2,0.5v4.5L481.4,220z M462.2,230.5l15.2-7.7v2l-11.7,7.7
	L462.2,230.5z M399.9,191l12.8-6l9.5-10.5l5.2,2.3l2.3-4.8l8.7-0.2l-2.2,4l7.2,6.2l4.8-4.8v-6.7l2.2,0.7l2.5,12l7.8,11l-0.8,8.3
	l-14.2,14.7l-12.3-0.7l-1.5-8.3l-4.2,1.8l-4-3.5l-24.3,5.3l-1.5-1.8l2-4.8V191z"/>
</svg>
