<?xml version="1.0" encoding="utf-8"?>
<!-- Generator: Adobe Illustrator 22.1.0, SVG Export Plug-In . SVG Version: 6.00 Build 0)  -->
<svg version="1.1" id="Layer_1" xmlns="http://www.w3.org/2000/svg" xmlns:xlink="http://www.w3.org/1999/xlink" x="0px" y="0px"
	 viewBox="0 0 247.3 91.7" style="enable-background:new 0 0 247.3 91.7;" xml:space="preserve">
<style type="text/css">
	.st0{display:none;fill:#054572;}
	.st1{display:none;fill:url(#SVGID_1_);}
	.st2{fill:#FFFFFF;}
	.st3{fill:#C6E7FA;}
</style>
<rect x="-130.6" y="-86.7" class="st0" width="536.5" height="257.9"/>
<radialGradient id="SVGID_1_" cx="-172.8829" cy="63.7326" r="405.5225" gradientTransform="matrix(0.5951 0 0 0.4054 226.5474 17.9944)" gradientUnits="userSpaceOnUse">
	<stop  offset="0" style="stop-color:#009EC2;stop-opacity:0.5"/>
	<stop  offset="0.7435" style="stop-color:#054572"/>
</radialGradient>
<rect x="-64.9" y="-49.3" class="st1" width="377.1" height="186.2"/>
<g>
	<g>
		<path class="st2" d="M28.1,17.8c-5.9,0-11.9,3.7-11.9,11.8v18.9c0,8.2,6,11.9,11.9,11.9c7.2,0,11.7-4.4,11.7-11.4v-4.2
			c0-0.6-0.5-1.2-1.2-1.2h-4.9c-0.6,0-1.2,0.5-1.2,1.2V49c0,2.8-1.4,4.2-4.2,4.2c-2.8,0-4.3-1.4-4.3-4V29c0-2.6,1.5-4,4.3-4
			c3.5,0,4.2,2.3,4.2,4.2v4.1c0,0.6,0.5,1.2,1.2,1.2h4.9c0.6,0,1.2-0.5,1.2-1.2v-4.2C39.8,22.1,35.3,17.8,28.1,17.8z"/>
		<path class="st2" d="M60.6,54.1c-0.3,0-0.4,0-0.4,0c0,0,0-0.1,0-0.3V39.3c0-6.2-3.2-9.7-9.1-9.7c-5.5,0-9,3.5-9,8.8V40
			c0,0.6,0.5,1.2,1.2,1.2h4.6c0.6,0,1.2-0.5,1.2-1.2v-1.4c0-2.1,0.3-2.4,2.1-2.4c1.5,0,2.1,0.6,2.1,2.2v2.8c-5.9,1-12.2,3.2-12.2,10
			v0.6c0,5,3.1,8.2,7.9,8.2c2.2,0,4.3-0.8,6-2.2c0.7,1.4,2.2,2.2,4.2,2.2h1.5c0.6,0,1.2-0.5,1.2-1.2v-3.7
			C61.7,54.6,61.2,54.1,60.6,54.1z M53.2,50.8c0,1.8-1.8,3-3.4,3c-1.6,0-1.9-1.3-1.9-2V51c0-0.9,0-3.1,5.3-4V50.8z"/>
		<path class="st2" d="M76.9,29.9c-3-0.5-5.2,0.1-6.8,2L70,31.2c-0.1-0.6-0.6-1.1-1.2-1.1h-4.1c-0.6,0-1.2,0.5-1.2,1.2v27.1
			c0,0.6,0.5,1.2,1.2,1.2h4.9c0.6,0,1.2-0.5,1.2-1.2v-19c0-1,0.3-1.4,0.6-1.6c0.6-0.5,1.9-1,5.1-0.6c0.3,0,0.7-0.1,0.9-0.3
			c0.2-0.2,0.4-0.5,0.4-0.9v-4.9C77.8,30.5,77.4,30,76.9,29.9z"/>
		<path class="st2" d="M91.2,29.6c-1.9,0-3.7,0.7-5.1,1.8V19.8c0-0.6-0.5-1.2-1.2-1.2h-4.8c-0.6,0-1.2,0.5-1.2,1.2v38.6
			c0,0.6,0.5,1.2,1.2,1.2h3.2c0.6,0,1-0.4,1.1-0.9l0.2-0.9C86,59.2,88,60,90.4,60c4.9,0,8.1-3.7,8.1-9.1V38.7
			C98.5,33.2,95.7,29.6,91.2,29.6z M91.4,39.8v10.4c0,3.2-1.3,3.6-2.6,3.6c-1.3,0-2.7-0.9-2.7-3.3v-11c0-2.1,1-3.3,2.8-3.3
			C90.2,36.2,91.4,36.6,91.4,39.8z"/>
		<path class="st2" d="M110.5,29.6c-5.8,0-9.7,4.1-9.7,10.3v10c0,6.2,3.8,10.2,9.7,10.2c5.8,0,9.6-4,9.6-10.2v-10
			C120.2,33.7,116.4,29.6,110.5,29.6z M108,39c0-1.1,0.3-2.8,2.6-2.8c2.2,0,2.6,1.8,2.6,2.8v11.7c0,1.9-0.9,2.8-2.6,2.8
			c-1.7,0-2.6-1-2.6-2.8V39z"/>
		<path class="st2" d="M134.9,29.7c-2.2,0-4.1,0.9-5.5,2.7l-0.1-1.3c0-0.6-0.5-1.1-1.2-1.1h-4.1c-0.6,0-1.2,0.5-1.2,1.2v27.1
			c0,0.6,0.5,1.2,1.2,1.2h4.9c0.6,0,1.2-0.5,1.2-1.2V40.7c0-1.4,1.2-4.7,3.2-4.7c1.9,0,2.1,1.8,2.1,2.6v19.8c0,0.6,0.5,1.2,1.2,1.2
			h4.9c0.6,0,1.2-0.5,1.2-1.2v-20C142.7,33,139.7,29.7,134.9,29.7z"/>
	</g>
	<g>
		<path class="st3" d="M165.7,38.5c2-1.4,3-3.7,3-6.9v-3.1c0-6.4-3.5-9.8-10.1-9.8h-11.2c-0.6,0-1.2,0.5-1.2,1.2v38.6
			c0,0.6,0.5,1.2,1.2,1.2h11.5c6.7,0,10.2-3.4,10.2-9.8v-4.1C169.1,42.3,167.9,39.9,165.7,38.5z M160.9,32.4c0,2.2-0.9,3.2-3,3.2
			H154v-9.9h4.6c1.4,0,2.3,0.4,2.3,2.6V32.4z M154,42.2h4.2c2,0,3,1,3,3.2v4.5c0,1.8-0.7,2.6-2.4,2.6H154V42.2z"/>
		<path class="st3" d="M184.9,29.9c-3-0.5-5.2,0.1-6.8,2l-0.1-0.8c-0.1-0.6-0.6-1.1-1.2-1.1h-4.1c-0.6,0-1.2,0.5-1.2,1.2v27.1
			c0,0.6,0.5,1.2,1.2,1.2h4.9c0.6,0,1.2-0.5,1.2-1.2v-19c0-1,0.3-1.4,0.6-1.6c0.6-0.5,1.9-1,5.1-0.6c0.3,0,0.7-0.1,0.9-0.3
			c0.2-0.2,0.4-0.5,0.4-0.9v-4.9C185.9,30.5,185.5,30,184.9,29.9z"/>
		<path class="st3" d="M188.4,28.1h4.5c0.6,0,1.2-0.5,1.2-1.2v-5.2c0-0.6-0.5-1.2-1.2-1.2h-4.5c-0.6,0-1.2,0.5-1.2,1.2v5.2
			C187.2,27.6,187.7,28.1,188.4,28.1z"/>
		<path class="st3" d="M193.1,30.1h-4.9c-0.6,0-1.2,0.5-1.2,1.2v27.1c0,0.6,0.5,1.2,1.2,1.2h4.9c0.6,0,1.2-0.5,1.2-1.2V31.3
			C194.2,30.6,193.7,30.1,193.1,30.1z"/>
		<path class="st3" d="M206.6,29.6c-5.8,0-9.6,4-9.6,10.3v10c0,6.2,3.8,10.2,9.6,10.2c5.8,0,9.2-3.8,9.2-10v-1.2
			c0-0.6-0.5-1.2-1.2-1.2h-4.3c-0.6,0-1.2,0.5-1.2,1.2v1.9c0,2-0.9,3-2.6,3c-1.7,0-2.6-1-2.6-3v-4.4h10.6c0.6,0,1.2-0.5,1.2-1.2
			v-5.2C215.9,33.6,212.3,29.6,206.6,29.6z M204.1,41.2v-2.1c0-1.4,0.5-3,2.6-3c2.1,0,2.6,1.6,2.6,3v2.1H204.1z"/>
		<path class="st3" d="M230,18.6h-1.9c-5.3,0-8.4,3.7-8.4,10.1v1.4h-2c-0.6,0-1.2,0.5-1.2,1.2v4.1c0,0.6,0.5,1.2,1.2,1.2h2v21.9
			c0,0.6,0.5,1.2,1.2,1.2h4.9c0.6,0,1.2-0.5,1.2-1.2V36.5h2.6c0.6,0,1.2-0.5,1.2-1.2v-4.1c0-0.6-0.5-1.2-1.2-1.2h-2.8v-2.4
			c0-2.5,1-2.7,2-2.7h1.3c0.6,0,1.2-0.5,1.2-1.2v-4.1C231.2,19.1,230.7,18.6,230,18.6z"/>
	</g>
	<g>
		<path class="st3" d="M64.2,67.8c0.8,0,1.5,0.3,2,0.8c0.1,0.1,0.1,0.2,0,0.2l-0.5,0.5c-0.1,0.1-0.1,0.1-0.2,0
			c-0.4-0.3-0.8-0.5-1.3-0.5c-1.1,0-1.9,0.9-1.9,2c0,1,0.8,1.9,1.9,1.9c0.5,0,0.9-0.2,1.3-0.5c0.1-0.1,0.2-0.1,0.2,0l0.5,0.5
			c0.1,0.1,0,0.2,0,0.2c-0.6,0.6-1.3,0.8-2,0.8c-1.7,0-3-1.3-3-3C61.2,69.1,62.5,67.8,64.2,67.8z"/>
		<path class="st3" d="M73.2,68c0-0.1,0.1-0.2,0.2-0.2h0.8c0.1,0,0.2,0.1,0.2,0.2v4.7h2.1c0.1,0,0.2,0.1,0.2,0.2v0.7
			c0,0.1-0.1,0.2-0.2,0.2h-3.1c-0.1,0-0.2-0.1-0.2-0.2V68z"/>
		<path class="st3" d="M83.3,68c0-0.1,0.1-0.2,0.2-0.2h3.4c0.1,0,0.2,0.1,0.2,0.2v0.7c0,0.1-0.1,0.2-0.2,0.2h-2.5v1.4h2.1
			c0.1,0,0.2,0.1,0.2,0.2v0.7c0,0.1-0.1,0.2-0.2,0.2h-2.1v1.5h2.5c0.1,0,0.2,0.1,0.2,0.2v0.7c0,0.1-0.1,0.2-0.2,0.2h-3.4
			c-0.1,0-0.2-0.1-0.2-0.2V68z"/>
		<path class="st3" d="M93.4,73.5l2.6-5.6c0-0.1,0.1-0.1,0.1-0.1h0.1c0.1,0,0.1,0,0.1,0.1l2.6,5.6c0.1,0.1,0,0.2-0.1,0.2h-0.7
			c-0.1,0-0.2-0.1-0.2-0.2l-0.4-0.9h-2.5l-0.4,0.9c0,0.1-0.1,0.2-0.2,0.2h-0.7C93.4,73.7,93.3,73.6,93.4,73.5z M97,71.7l-0.8-1.8h0
			l-0.8,1.8H97z"/>
		<path class="st3" d="M105.6,68c0-0.1,0.1-0.2,0.2-0.2h2.4c1,0,1.8,0.8,1.8,1.8c0,0.8-0.5,1.4-1.2,1.7l1.1,2.1
			c0.1,0.1,0,0.2-0.1,0.2h-0.9c-0.1,0-0.1,0-0.1-0.1l-1.1-2.2h-0.9v2.1c0,0.1-0.1,0.2-0.2,0.2h-0.8c-0.1,0-0.2-0.1-0.2-0.2V68z
			 M108,70.5c0.4,0,0.8-0.4,0.8-0.9c0-0.4-0.4-0.8-0.8-0.8h-1.4v1.7H108z"/>
		<path class="st3" d="M127.4,67.8c1.7,0,3,1.4,3,3c0,1.7-1.3,3-3,3c-1.7,0-3-1.3-3-3C124.3,69.1,125.7,67.8,127.4,67.8z
			 M127.4,72.7c1.1,0,1.9-0.9,1.9-1.9c0-1.1-0.9-1.9-1.9-1.9s-1.9,0.9-1.9,1.9C125.4,71.9,126.3,72.7,127.4,72.7z"/>
		<path class="st3" d="M137.4,67.9c0-0.1,0.1-0.2,0.2-0.2h0.2l3.5,3.7h0V68c0-0.1,0.1-0.2,0.2-0.2h0.8c0.1,0,0.2,0.1,0.2,0.2v5.6
			c0,0.1-0.1,0.2-0.2,0.2H142l-3.5-3.9h0v3.6c0,0.1-0.1,0.2-0.2,0.2h-0.8c-0.1,0-0.2-0.1-0.2-0.2V67.9z"/>
		<path class="st3" d="M160,67.8c0.8,0,1.5,0.3,2,0.8c0.1,0.1,0.1,0.2,0,0.2l-0.5,0.5c-0.1,0.1-0.1,0.1-0.2,0
			c-0.4-0.3-0.8-0.5-1.3-0.5c-1.1,0-1.9,0.9-1.9,2c0,1,0.8,1.9,1.9,1.9c0.5,0,0.9-0.2,1.3-0.5c0.1-0.1,0.2-0.1,0.2,0l0.5,0.5
			c0.1,0.1,0,0.2,0,0.2c-0.6,0.6-1.3,0.8-2,0.8c-1.7,0-3-1.3-3-3C157,69.1,158.4,67.8,160,67.8z"/>
		<path class="st3" d="M169.1,68c0-0.1,0.1-0.2,0.2-0.2h0.8c0.1,0,0.2,0.1,0.2,0.2v4.7h2.1c0.1,0,0.2,0.1,0.2,0.2v0.7
			c0,0.1-0.1,0.2-0.2,0.2h-3.1c-0.1,0-0.2-0.1-0.2-0.2V68z"/>
		<path class="st3" d="M179.2,68c0-0.1,0.1-0.2,0.2-0.2h0.8c0.1,0,0.2,0.1,0.2,0.2v5.6c0,0.1-0.1,0.2-0.2,0.2h-0.8
			c-0.1,0-0.2-0.1-0.2-0.2V68z"/>
		<path class="st3" d="M188.3,67.9c0-0.1,0.1-0.1,0.2-0.1h0.1c0.1,0,0.1,0,0.1,0.1l1.8,4c0,0,0,0,0,0l1.8-4c0-0.1,0.1-0.1,0.1-0.1
			h0.1c0.1,0,0.1,0.1,0.2,0.1l1,5.6c0,0.1,0,0.2-0.2,0.2h-0.8c-0.1,0-0.1-0.1-0.2-0.1l-0.5-3.2c0,0,0,0,0,0l-1.5,3.3
			c0,0.1-0.1,0.1-0.1,0.1h-0.2c-0.1,0-0.1,0-0.1-0.1l-1.5-3.3c0,0,0,0,0,0l-0.5,3.2c0,0.1-0.1,0.1-0.2,0.1h-0.8
			c-0.1,0-0.2-0.1-0.2-0.2L188.3,67.9z"/>
		<path class="st3" d="M200.1,73.5l2.6-5.6c0-0.1,0.1-0.1,0.1-0.1h0.1c0.1,0,0.1,0,0.1,0.1l2.6,5.6c0.1,0.1,0,0.2-0.1,0.2h-0.7
			c-0.1,0-0.2-0.1-0.2-0.2l-0.4-0.9h-2.5l-0.4,0.9c0,0.1-0.1,0.2-0.2,0.2h-0.7C200.1,73.7,200.1,73.6,200.1,73.5z M203.7,71.7
			l-0.8-1.8h0l-0.8,1.8H203.7z"/>
		<path class="st3" d="M212.8,68.9h-1.3c-0.1,0-0.2-0.1-0.2-0.2V68c0-0.1,0.1-0.2,0.2-0.2h3.7c0.1,0,0.2,0.1,0.2,0.2v0.7
			c0,0.1-0.1,0.2-0.2,0.2h-1.3v4.7c0,0.1-0.1,0.2-0.2,0.2H213c-0.1,0-0.2-0.1-0.2-0.2V68.9z"/>
		<path class="st3" d="M222.1,68c0-0.1,0.1-0.2,0.2-0.2h3.4c0.1,0,0.2,0.1,0.2,0.2v0.7c0,0.1-0.1,0.2-0.2,0.2h-2.5v1.4h2.1
			c0.1,0,0.2,0.1,0.2,0.2v0.7c0,0.1-0.1,0.2-0.2,0.2h-2.1v1.5h2.5c0.1,0,0.2,0.1,0.2,0.2v0.7c0,0.1-0.1,0.2-0.2,0.2h-3.4
			c-0.1,0-0.2-0.1-0.2-0.2V68z"/>
	</g>
</g>
</svg>
