<?xml version="1.0" encoding="utf-8"?>
<!-- Generator: Adobe Illustrator 22.1.0, SVG Export Plug-In . SVG Version: 6.00 Build 0)  -->
<svg version="1.1" xmlns="http://www.w3.org/2000/svg" xmlns:xlink="http://www.w3.org/1999/xlink" x="0px" y="0px"
	 viewBox="0 0 69.1 59.6" style="enable-background:new 0 0 69.1 59.6;" xml:space="preserve">
<style type="text/css">
	.st0{display:none;}
	.st1{display:inline;fill:#FFFFFF;}
	.st2{fill:#F3F3F3;}
</style>
<g id="Layer_2" class="st0">
	<rect x="-38.1" y="-13.9" class="st1" width="157.9" height="102.6"/>
</g>
<g id="Layer_1">
	<path class="st2" d="M20.8,8.5c-6.2,0-12.5,3.7-12.5,12v19.1c0,8.3,6.3,12,12.5,12c7.5,0,12.2-4.4,12.2-11.5v-4.2
		c0-0.6-0.5-1.2-1.2-1.2h-5.2c-0.7,0-1.2,0.5-1.2,1.2V40c0,2.8-1.5,4.3-4.4,4.3c-2.9,0-4.5-1.4-4.5-4V19.8c0-2.6,1.6-4,4.5-4
		c3.7,0,4.4,2.3,4.4,4.3v4.1c0,0.6,0.5,1.2,1.2,1.2h5.2c0.7,0,1.2-0.5,1.2-1.2v-4.2C33,12.9,28.3,8.5,20.8,8.5z"/>
	<path class="st2" d="M57,29.4c2.1-1.4,3.1-3.7,3.1-7v-3.2c0-6.5-3.7-9.9-10.6-9.9H37.8c-0.7,0-1.2,0.5-1.2,1.2v39
		c0,0.6,0.5,1.2,1.2,1.2h12c7,0,10.7-3.4,10.7-9.9v-4.2C60.5,33.3,59.3,30.8,57,29.4z M52,23.2c0,2.3-0.9,3.2-3.1,3.2h-4.1v-10h4.8
		c1.5,0,2.4,0.4,2.4,2.6V23.2z M44.8,33.2h4.4c2.1,0,3.1,1,3.1,3.2V41c0,1.8-0.7,2.6-2.5,2.6h-5V33.2z"/>
</g>
</svg>
