<?xml version="1.0" encoding="utf-8"?>
<!-- Generator: Adobe Illustrator 22.1.0, SVG Export Plug-In . SVG Version: 6.00 Build 0)  -->
<svg version="1.1" id="River" xmlns="http://www.w3.org/2000/svg" xmlns:xlink="http://www.w3.org/1999/xlink" x="0px" y="0px"
	 viewBox="0 0 1200 1120" style="enable-background:new 0 0 1200 1120;" xml:space="preserve">
<style type="text/css">
	.st0{fill:#FFFFFF;stroke:#FFFFFF;stroke-width:14.0985;stroke-linejoin:round;stroke-miterlimit:10;}
</style>
<g>
	<path class="st0" d="M1180,858.5c-105,0-127.3-112.3-232-112.2c-104.9,0.2-127,113.1-232,113.3c-104.7,0.2-127.6-123.7-232-112.2
		C379.1,759,351.4,859.6,252,859.6c-105,0-127.1-112.2-232-112.2V561.7c104.9,0,127,112.2,232,112.2c99.4,0,127.1-100.6,232-112.2
		C588.4,550.2,611.3,674,716,673.9c105-0.2,127.1-113.1,232-113.3c104.7-0.2,127,112.2,232,112.2V858.5z"/>
	<path class="st0" d="M1180,558.4c-105,0-127.3-112.3-232-112.2c-104.9,0.2-127,113.1-232,113.3c-104.7,0.2-127.6-123.7-232-112.2
		c-104.9,11.6-132.6,112.2-232,112.2c-105,0-127.1-112.2-232-112.2V261.6c104.9,0,127,112.2,232,112.2c99.4,0,127.1-100.6,232-112.2
		c104.4-11.5,127.3,112.3,232,112.1c105-0.2,127.1-113.1,232-113.3c104.7-0.2,127,112.2,232,112.2V558.4z"/>
</g>
</svg>
