<?xml version="1.0" encoding="utf-8"?>
<!-- Generator: Adobe Illustrator 22.1.0, SVG Export Plug-In . SVG Version: 6.00 Build 0)  -->
<svg version="1.1" id="Sea_level_rise" xmlns="http://www.w3.org/2000/svg" xmlns:xlink="http://www.w3.org/1999/xlink" x="0px"
	 y="0px" viewBox="0 0 1200 1120" style="enable-background:new 0 0 1200 1120;" xml:space="preserve">
<style type="text/css">
	.st0{fill:#FFFFFF;}
</style>
<g>
	<path class="st0" d="M806.9,307.2v388.2c0,12.7,12.8,21.4,24.6,16.8c14.3-5.5,30.6-9.3,51.2-9.3c55.4-0.1,80,27.1,117.4,43.2
		c11.9,5.2,25.3-3.5,25.3-16.5V307.2c0-10-8.1-18-18-18H824.9C815,289.1,806.9,297.2,806.9,307.2z M933.7,466.2h-37.5
		c-10,0-18-8.1-18-18v-67.5c0-10,8.1-18,18-18h37.5c10,0,18,8.1,18,18v67.5C951.8,458.1,943.7,466.2,933.7,466.2z"/>
	<path class="st0" d="M9.7,1056.5c0.2,13.7,12.6,24,26.1,21.7c58.1-10.2,79.3-52.9,148.9-52.9c79,0,95.7,55,174.7,55
		c74.9,0,95.7-49.3,174.7-55c78.6-5.6,95.9,55.1,174.7,55c79-0.1,95.6-55.5,174.7-55.6c78.8-0.1,95.4,54.9,174.7,55
		c55.4,0.1,79.7-26.7,116.9-42.9c8.2-3.6,13.6-11.6,13.6-20.5l0-52.3c0-17-18.2-27.7-33.1-19.5c-28.1,15.5-52.7,33.8-98.5,33.7
		c-79.3-0.1-96-55.1-174.7-55c-79.1,0.1-95.7,55.5-174.7,55.6c-78.9,0.1-96.1-60.7-174.7-55c-79,5.7-99.9,55-174.7,55
		c-79.1,0-95.7-55-174.7-55c-72,0-92.2,45.7-155.2,53.8C17.4,979,9.1,988.7,9.3,1000L9.7,1056.5z"/>
	<path class="st0" d="M9.7,899.3c0.2,13.7,12.6,24,26.1,21.7c58.1-10.2,79.3-52.9,148.9-52.9c79,0,95.7,55,174.7,55
		c74.9,0,95.7-49.3,174.7-55c78.6-5.6,95.9,55.1,174.7,55c79-0.1,95.6-55.5,174.7-55.6c78.8-0.1,95.4,54.9,174.7,55
		c55.4,0.1,79.7-26.7,116.9-42.9c8.2-3.6,13.6-11.6,13.6-20.5l0-52.3c0-17-18.2-27.7-33.1-19.5c-28.1,15.5-52.7,33.8-98.5,33.7
		c-79.3-0.1-96-55.1-174.7-55c-79.1,0.1-95.7,55.5-174.7,55.6c-78.9,0.1-96.1-60.7-174.7-55c-79,5.7-99.9,55-174.7,55
		c-79.1,0-95.7-55-174.7-55c-72,0-92.2,45.7-155.2,53.8c-11.2,1.4-19.4,11.1-19.3,22.4L9.7,899.3z"/>
	<path class="st0" d="M338.4,845.7c74.9,0,95.7-49.3,174.7-55c78.6-5.6,95.9,55.1,174.7,55c27.3,0,47.2-6.7,64.7-15.3
		c7.5-3.7,12.2-11.4,12.2-19.8V61.7c0-12.2-9.9-22.1-22.1-22.1H242.2c-12.2,0-22.1,9.9-22.1,22.1v726.3c0,8.3,4.7,15.9,12.1,19.7
		C263.6,824,288.7,845.7,338.4,845.7z M569,148.6h64.7c12.2,0,22.1,9.9,22.1,22.1v108.2c0,12.2-9.9,22.1-22.1,22.1H569
		c-12.2,0-22.1-9.9-22.1-22.1V170.7C546.9,158.5,556.8,148.6,569,148.6z M569,398.8h64.7c12.2,0,22.1,9.9,22.1,22.1v108.2
		c0,12.2-9.9,22.1-22.1,22.1H569c-12.2,0-22.1-9.9-22.1-22.1V420.9C546.9,408.7,556.8,398.8,569,398.8z M351.2,148.6h64.7
		c12.2,0,22.1,9.9,22.1,22.1v108.2c0,12.2-9.9,22.1-22.1,22.1h-64.7c-12.2,0-22.1-9.9-22.1-22.1V170.7
		C329,158.5,338.9,148.6,351.2,148.6z M351.2,398.8h64.7c12.2,0,22.1,9.9,22.1,22.1v108.2c0,12.2-9.9,22.1-22.1,22.1h-64.7
		c-12.2,0-22.1-9.9-22.1-22.1V420.9C329,408.7,338.9,398.8,351.2,398.8z"/>
</g>
</svg>
