<?xml version="1.0" encoding="utf-8"?>
<!-- Generator: Adobe Illustrator 22.1.0, SVG Export Plug-In . SVG Version: 6.00 Build 0)  -->
<svg version="1.1" id="Wheat" xmlns="http://www.w3.org/2000/svg" xmlns:xlink="http://www.w3.org/1999/xlink" x="0px" y="0px"
	 viewBox="0 0 1120 1120" style="enable-background:new 0 0 1120 1120;" xml:space="preserve">
<style type="text/css">
	.st0{fill:#FFFFFF;}
</style>
<g>
	<g>
		<path class="st0" d="M1044.8,193.4c-45.3,45.7-105.5,67.6-165,65.6c-8.8-0.3-15.9-7.3-16.3-16.2c-2.6-59.6,18.7-120,64-165.7
			c45.3-45.7,105.5-67.6,165-65.6c8.8,0.3,15.9,7.3,16.3,16.2C1111.3,87.3,1090,147.7,1044.8,193.4z"/>
		<g>
			<path class="st0" d="M665.1,804.1c-36-47.5-91-80.4-155-86.8c-51.4-5.1-100.3,7.8-140.8,33.5c25.7-40.4,38.6-89.4,33.5-140.8
				c-6.3-64-39.3-119-86.8-155c-7-5.3-17-4.4-22.9,2.3c-39.5,44.6-61.1,105-54.8,169c6.3,64,39.3,119,86.8,155
				c3,2.3,11.3,10.6,13.6,13.6c36,47.5,91,80.4,155,86.8s124.3-15.2,169-54.8C669.5,821.1,670.5,811.1,665.1,804.1z"/>
			<path class="st0" d="M812.3,656.8c-36-47.5-91-80.4-155-86.8C606,565,557,577.9,516.6,603.6c25.7-40.4,38.6-89.4,33.5-140.8
				c-6.3-64-39.3-119-86.8-155c-7-5.3-17-4.4-22.9,2.3c-39.5,44.6-61.1,105-54.8,169c6.3,64,39.3,119,86.8,155
				c3,2.3,11.3,10.6,13.6,13.6c36,47.5,91,80.4,155,86.8c64,6.3,124.3-15.2,169-54.8C816.7,673.8,817.7,663.9,812.3,656.8z"/>
			<path class="st0" d="M959.6,509.6c-36-47.5-91-80.4-155-86.8c-51.4-5.1-100.3,7.8-140.8,33.5c25.7-40.4,38.6-89.4,33.5-140.8
				c-6.3-64-39.3-119-86.8-155c-7-5.3-17-4.4-22.9,2.3c-39.5,44.6-61.1,105-54.8,169c6.3,64,39.3,119,86.8,155
				c3,2.3,11.3,10.6,13.6,13.6c36,47.5,91,80.4,155,86.8c64,6.3,124.3-15.2,169-54.8C963.9,526.6,964.9,516.7,959.6,509.6z"/>
			<path class="st0" d="M1106.8,362.4c-36-47.5-91-80.4-155-86.8c-51.4-5.1-100.3,7.8-140.8,33.5c25.7-40.4,38.6-89.4,33.5-140.8
				c-6.3-64-39.3-119-86.8-155c-7-5.3-17-4.4-22.9,2.3c-39.5,44.6-61.1,105-54.8,169c6.3,64,39.3,119,86.8,155
				c3,2.3,11.3,10.6,13.6,13.6c36,47.5,91,80.4,155,86.8c64,6.3,124.3-15.2,169-54.8C1111.1,379.4,1112.1,369.5,1106.8,362.4z"/>
		</g>
	</g>
	<path class="st0" d="M23.9,1096.3L23.9,1096.3c-12.5-12.5-12.5-33.1,0-45.6l243.4-243.4c12.5-12.5,33.1-12.5,45.6,0l0,0
		c12.5,12.5,12.5,33.1,0,45.6L69.5,1096.3C57,1108.9,36.4,1108.9,23.9,1096.3z"/>
</g>
</svg>
